<svg xmlns="http://www.w3.org/2000/svg" viewBox="0 0 265.578 246.017"><defs><style>.cls-1{fill:#ebebeb;}</style></defs><title>arrow_3</title><g id="Capa_2" data-name="Capa 2"><g id="Capa_1-2" data-name="Capa 1"><path class="cls-1" d="M95.408,8.347,86.245,17.51l-21.6,21.6L39.456,64.3,19.505,84.251,14.257,89.5A47.027,47.027,0,0,0,1.564,110.674c-.117.444-.214.893-.294,1.346-.513,2.932-.927,5.974-1.2,8.938a16.81,16.81,0,0,0,0,3.084,64.126,64.126,0,0,0,1.493,10.284,58.457,58.457,0,0,0,3.794,9.424,17.852,17.852,0,0,0,1.57,2.759,62.665,62.665,0,0,0,6.327,7.99c.055.057.112.112.168.169,1.2,1.21,2.414,2.413,3.62,3.62l17.875,17.874,24.85,24.85,23.181,23.181L95.815,237.06l.593.593a21.358,21.358,0,0,0,9.172,5.892A21.461,21.461,0,0,0,116.561,246a21.457,21.457,0,0,0,10.98-2.455,21.358,21.358,0,0,0,9.172-5.892l4.456-5.769a28.359,28.359,0,0,0,3.892-14.384l-1.018-7.576a28.488,28.488,0,0,0-7.33-12.577l-8.4-8.4-20.125-20.125L83.953,144.588,63.226,123.86c-3.2-3.2-6.429-6.38-9.606-9.606a20.456,20.456,0,0,1-1.5-1.7l4.457,5.768a18.04,18.04,0,0,1-2.136-3.657l2.873,6.808a17.98,17.98,0,0,1-1.179-4.321l1.018,7.576a18.087,18.087,0,0,1,0-4.448l-1.018,7.576a17.98,17.98,0,0,1,1.179-4.321l-2.873,6.808a18.04,18.04,0,0,1,2.136-3.657l-4.457,5.768a40.851,40.851,0,0,1,3.332-3.531l5.762-5.762L80.76,103.606l23.85-23.851,20.81-20.809c3.383-3.383,6.788-6.745,10.149-10.15l.144-.143a21.363,21.363,0,0,0,5.893-9.173,21.465,21.465,0,0,0,2.455-10.98,21.465,21.465,0,0,0-2.455-10.98,21.363,21.363,0,0,0-5.893-9.173l-5.768-4.456A28.368,28.368,0,0,0,115.561,0l-7.577,1.018A28.473,28.473,0,0,0,95.408,8.347Z"/><path class="cls-1" d="M237.061,94H48.066c-2.559,0-5.119-.012-7.679,0-.109,0-.218,0-.326,0A21.461,21.461,0,0,0,29.08,96.455a21.358,21.358,0,0,0-9.172,5.892,21.372,21.372,0,0,0-5.893,9.173,21.465,21.465,0,0,0-2.454,10.98l1.018,7.576a28.477,28.477,0,0,0,7.329,12.577l5.768,4.456A28.369,28.369,0,0,0,40.061,151H229.055c2.559,0,5.119.012,7.679,0,.109,0,.218,0,.327,0a21.457,21.457,0,0,0,10.98-2.455,21.358,21.358,0,0,0,9.172-5.892,21.363,21.363,0,0,0,5.893-9.173,21.465,21.465,0,0,0,2.455-10.98l-1.018-7.576a28.488,28.488,0,0,0-7.33-12.577l-5.768-4.456A28.368,28.368,0,0,0,237.061,94Z"/></g></g></svg>