<svg xmlns="http://www.w3.org/2000/svg" viewBox="0 0 265.574 246.017"><defs><style>.cls-1{fill:#ebebeb;}</style></defs><title>arrow_4</title><g id="Capa_2" data-name="Capa 2"><g id="Capa_1-2" data-name="Capa 1"><path class="cls-1" d="M129.864,48.67l8.309,8.308,19.9,19.9,23.871,23.871,20.5,20.5c3.171,3.171,6.365,6.32,9.513,9.513a20.289,20.289,0,0,1,1.5,1.705l-4.456-5.768a18.04,18.04,0,0,1,2.136,3.657l-2.874-6.808a17.936,17.936,0,0,1,1.18,4.321l-1.018-7.576a18.186,18.186,0,0,1,0,4.448l1.018-7.576a17.936,17.936,0,0,1-1.18,4.321l2.874-6.808a18.04,18.04,0,0,1-2.136,3.657l4.456-5.768a41.467,41.467,0,0,1-3.37,3.57l-5.816,5.815L184.5,141.729l-24.214,24.214L139.25,186.979c-3.414,3.414-6.851,6.807-10.243,10.243-.047.048-.095.095-.143.142a21.361,21.361,0,0,0-5.892,9.173,25.782,25.782,0,0,0,0,21.96,21.361,21.361,0,0,0,5.892,9.173l5.769,4.456a28.368,28.368,0,0,0,14.384,3.891L156.593,245a28.477,28.477,0,0,0,12.577-7.329l9.081-9.082,21.483-21.483,25.239-25.239,20.349-20.349,5.641-5.64c.405-.406.813-.811,1.217-1.218.135-.135.269-.269.4-.407a39.683,39.683,0,0,0,7.778-10.805,58.968,58.968,0,0,0,3.739-9.438c.107-.447.191-.9.265-1.351.477-2.937.962-5.968,1.172-8.941a18.244,18.244,0,0,0-.063-3.083,60.8,60.8,0,0,0-1.549-10.277,46.4,46.4,0,0,0-11.656-19.895c-1.043-1.058-2.1-2.1-3.153-3.153L231.752,69.947,207.016,45.211,183.742,21.937,170.769,8.963l-.6-.6A21.361,21.361,0,0,0,161,2.472,21.455,21.455,0,0,0,150.017.017a21.455,21.455,0,0,0-10.98,2.455,21.361,21.361,0,0,0-9.173,5.892l-4.456,5.769a28.368,28.368,0,0,0-3.891,14.384l1.018,7.576a28.477,28.477,0,0,0,7.329,12.577Z"/><path class="cls-1" d="M28.517,151.017H217.511c2.56,0,5.12.012,7.68,0,.108,0,.217,0,.326,0a21.455,21.455,0,0,0,10.98-2.455,21.361,21.361,0,0,0,9.173-5.892,21.361,21.361,0,0,0,5.892-9.173,21.455,21.455,0,0,0,2.455-10.98L253,114.941a28.482,28.482,0,0,0-7.329-12.577L239.9,97.908a28.374,28.374,0,0,0-14.385-3.891H36.523c-2.56,0-5.12-.012-7.68,0-.108,0-.217,0-.326,0a21.455,21.455,0,0,0-10.98,2.455,21.361,21.361,0,0,0-9.173,5.892,21.361,21.361,0,0,0-5.892,9.173,21.455,21.455,0,0,0-2.455,10.98l1.018,7.576A28.477,28.477,0,0,0,8.364,142.67l5.769,4.456a28.368,28.368,0,0,0,14.384,3.891Z"/></g></g></svg>