<svg xmlns="http://www.w3.org/2000/svg" viewBox="0 0 116.989 101.316"><defs><style>.cls-1{fill:#15151f;}.cls-2{fill:#f8e6d0;}</style></defs><title>face</title><g id="Capa_2" data-name="Capa 2"><g id="Capa_1-2" data-name="Capa 1"><polygon class="cls-1" points="30.402 99.316 2.31 50.658 30.402 2 86.587 2 114.68 50.658 86.587 99.316 30.402 99.316"/><path class="cls-2" d="M85.433,4,112.37,50.658,85.433,97.316H31.557L4.619,50.658,31.557,4H85.433m2.309-4H29.247L0,50.658l29.247,50.658h58.5l29.247-50.658L87.742,0Z"/><path class="cls-2" d="M51.5,79l.463-26.054H42.807V42.487h9.151V30.722s2.615-7.844,9.151-7.844H74.182v9.151H66.665s-3.922-.327-3.922,2.941v7.844H73.855L71.894,53.926H63.4V78.765Z"/></g></g></svg>