<svg xmlns="http://www.w3.org/2000/svg" viewBox="0 0 290 290"><defs><style>.cls-1{fill:#c9c9c9;}.cls-2{fill:#d6d6d6;}.cls-3{fill:#e3e3e3;}.cls-4{fill:#cacaca;}.cls-5{fill:#b1b1b1;}.cls-6{fill:#989898;}.cls-7{fill:#7f7f7f;}.cls-8{fill:#656565;}.cls-9{fill:#4d4d4d;}.cls-10{fill:red;}.cls-11{fill:#ff2a00;}.cls-12{fill:#f50;}.cls-13{fill:#cc6700;}.cls-14{fill:#e0994e;}.cls-15{fill:#cc8e4b;}.cls-16{fill:#a67c4e;}.cls-17{fill:#ffd3a1;}.cls-18{fill:#c2a37e;}</style></defs><title>ic2</title><g id="Capa_2" data-name="Capa 2"><g id="Capa_1-2" data-name="Capa 1"><rect class="cls-1" x="232" y="232" width="58" height="58"/><rect class="cls-2" x="174" y="232" width="58" height="58"/><rect class="cls-3" x="116" y="232" width="58" height="58"/><rect class="cls-4" x="58" y="232" width="58" height="58"/><rect class="cls-5" y="232" width="58" height="58"/><rect class="cls-3" x="174" y="174" width="58" height="58"/><rect class="cls-5" x="58" y="174" width="58" height="58"/><rect class="cls-4" x="116" y="174" width="58" height="58"/><rect class="cls-2" x="232" y="174" width="58" height="58"/><rect class="cls-6" y="174" width="58" height="58"/><rect class="cls-3" x="232" y="116" width="58" height="58"/><rect class="cls-4" x="174" y="116" width="58" height="58"/><rect class="cls-5" x="116" y="116" width="58" height="58"/><rect class="cls-6" x="58" y="116" width="58" height="58"/><rect class="cls-7" y="116" width="58" height="58"/><rect class="cls-4" x="232" y="58" width="58" height="58"/><rect class="cls-5" x="174" y="58" width="58" height="58"/><rect class="cls-6" x="116" y="58" width="58" height="58"/><rect class="cls-7" x="58" y="58" width="58" height="58"/><rect class="cls-8" y="58" width="58" height="58"/><rect class="cls-9" width="58" height="58"/><rect class="cls-8" x="58" width="58" height="58"/><rect class="cls-7" x="116" width="58" height="58"/><rect class="cls-6" x="174" width="58" height="58"/><rect class="cls-5" x="232" width="58" height="58"/><rect class="cls-10" width="58" height="58"/><rect class="cls-11" x="58" width="58" height="58"/><rect class="cls-12" x="116" width="58" height="58"/><rect class="cls-13" x="174" width="58" height="58"/><rect class="cls-14" x="232" width="58" height="58"/><rect class="cls-11" y="58" width="58" height="58"/><rect class="cls-12" x="58" y="58" width="58" height="58"/><rect class="cls-13" x="116" y="58" width="58" height="58"/><rect class="cls-14" x="174" y="58" width="58" height="58"/><rect class="cls-15" x="232" y="58" width="58" height="58"/><rect class="cls-12" y="116" width="58" height="58"/><rect class="cls-13" x="58" y="116" width="58" height="58"/><rect class="cls-14" x="116" y="116" width="58" height="58"/><rect class="cls-15" x="174" y="116" width="58" height="58"/><rect class="cls-16" x="232" y="116" width="58" height="58"/><rect class="cls-13" y="174" width="58" height="58"/><rect class="cls-14" x="58" y="174" width="58" height="58"/><rect class="cls-15" x="116" y="174" width="58" height="58"/><rect class="cls-16" x="174" y="174" width="58" height="58"/><rect class="cls-17" x="232" y="174" width="58" height="58"/><rect class="cls-14" y="232" width="58" height="58"/><rect class="cls-15" x="58" y="232" width="58" height="58"/><rect class="cls-16" x="116" y="232" width="58" height="58"/><rect class="cls-17" x="174" y="232" width="58" height="58"/><rect class="cls-18" x="232" y="232" width="58" height="58"/></g></g></svg>