<svg xmlns="http://www.w3.org/2000/svg" viewBox="0 0 551.45 474.01"><defs><style>.cls-1{fill:#303030;}.cls-2{fill:#565656;}.cls-3{fill:#434341;}.cls-4{fill:#a32900;}.cls-5{fill:#6da200;}.cls-6{fill:#80ae00;}.cls-7{fill:#8b1;}.cls-8{fill:#a36800;}.cls-9{fill:#ba8300;}.cls-10{fill:#a19e00;}.cls-11{fill:#b63200;}.cls-12{fill:#b03100;}.cls-13{fill:#6c6c6c;}.cls-14{fill:#b6b100;}.cls-15{fill:#c9900e;}.cls-16{fill:#bfba00;}.cls-17{fill:#ce9d34;}.cls-18{fill:#c4c00b;}.cls-19{fill:#d4ab5f;}.cls-20{fill:#dabb8a;}.cls-21{fill:#c9c535;}.cls-22{fill:#bf4c25;}.cls-23{fill:#d6a99f;}.cls-24{fill:#dfc8a8;}.cls-25{fill:#c87c67;}.cls-26{fill:#aca900;}.cls-27{fill:#aca700;}.cls-28{fill:#cf9687;}.cls-29{fill:#c36244;}.cls-30{fill:#636363;}.cls-31{fill:#95c034;}.cls-32{fill:#8ebd25;}.cls-33{fill:#9e3000;}.cls-34{fill:#72a000;}.cls-35{fill:#729f00;}.cls-36{fill:#a06a00;}.cls-37{fill:#9e9a00;}.cls-38{fill:#afac00;}.cls-39{fill:#cbc958;}.cls-40{fill:#9e6c00;}</style></defs><title>ic3_1</title><g id="Capa_2" data-name="Capa 2"><g id="Capa_1-2" data-name="Capa 1"><path class="cls-1" d="M424.84,210.6c3.59-.15,2.83,2.46,2.77,4.5q-1,34.93-2.11,69.85c-1.22,39.74-2.51,79.48-3.54,119.23-.1,4-1.3,5.76-5,7.13-28.37,10.46-56.42,21.76-84.82,32.15-25.21,9.22-50,19.44-75.06,29.18-1.67.65-3.29,1.71-5.24,1.27-.34-11.46-.36-22.93-.72-34.4-.88-27.92-1-55.86-2.25-83.77-.51-11.79-.21-23.59-.79-35.41-1.07-21.75-.89-43.56-1.23-65.35,20.17-5,40.36-9.94,60.49-15.07,12.87-3.27,26.05-5.36,38.65-9.71,12-2.72,24.1-4.94,35.82-8.77,7.08-1.59,14.21-3,21.22-4.84C410.3,214.66,418,214,424.84,210.6Z"/><path class="cls-2" d="M346,230.21c-12.6,4.34-25.78,6.43-38.65,9.7C287.19,245,267,250,246.83,255c-33.79-14.8-67.63-29.47-101.31-44.51-6-2.67-12.64-4.16-17.74-8.68,13.63-3.75,27.62-5.83,41.45-8.62,39.92-8.06,79.89-15.86,119.84-23.78a18.2,18.2,0,0,1,9.32.27q50.37,15.93,100.78,31.73c1.26.4,2.45,1,3.67,1.54-1.34,3.1-4.29,3.95-7,5.06-2.24-1.19-3.26.14-4,2L385.82,211c-6.43,1.63-12.9,3.12-19.28,4.91-5.42,1.53-11.24,1.16-16.44,3.73C345.71,221.83,344.21,225.38,346,230.21Z"/><path class="cls-3" d="M127.78,201.79c5.1,4.52,11.75,6,17.74,8.68,33.68,15,67.52,29.71,101.31,44.51.34,21.79.16,43.6,1.23,65.35.58,11.82.28,23.62.79,35.41,1.2,27.91,1.37,55.85,2.25,83.77.36,11.47.38,22.94.72,34.4-13.18-8-25.4-17.46-38.08-26.22-18.3-12.64-36.45-25.49-54.66-38.25,12.46-7.84,23.88-16.85,33-28.61,15.43-20,22.62-42.85,22.6-67.78,0-10.18-1.2-20.61-5.71-30.16l-.51-1.88-.61-1.1c-4.61-17.74-15.66-31.14-28.93-43-1.15-3.39-4.39-4.31-7-6-4.52-2.94-8.3-7.16-14-8.1-2-3.45-5.63-3.89-9-4.74-7.46-2.91-14.79-6.23-22.85-7.22C126.69,207.85,123.8,204.15,127.78,201.79Z"/><path class="cls-4" d="M547.71,141c7.68,24,3.55,45.92-12.59,65-17.44,20.58-40.25,28.88-66.7,23.68-24.8-4.86-42.07-19.72-50.58-43.95-5.33-15.18-5.3-30.32.54-45.4a28.9,28.9,0,0,1,4.51-8.27,23.81,23.81,0,0,0,8.05-5.74c9.5-9.52,21.24-13.07,34.33-13.3,12.48-.23,24.87.8,37.29,2,16.71,1.56,30.92,7.21,40.28,22C544,138.78,545.3,140.63,547.71,141Zm-69.43-21c-5.54-.54-11,.69-16.38,1.32a33.34,33.34,0,0,0-16.13,6.19c-12.93,9.54-18.59,22.22-18.12,38.33.89,30.11,26.36,53.91,57.74,52,31-1.91,55.81-30.53,51.29-61.56-2-13.81-8.82-24.63-22.27-30.18C502.84,121.27,490.57,120.51,478.28,120Z"/><path class="cls-5" d="M208.94,282.89c4.51,9.55,5.7,20,5.71,30.16,0,24.93-7.17,47.79-22.6,67.78-9.09,11.76-20.51,20.77-33,28.61-8.24,3.55-16.5,7-25.24,9.24-42.26,11-87-3.4-112.85-38.75C2.79,355-3.75,327.58,2.06,297,6,276.31,15.78,259,29.35,243.54A69.37,69.37,0,0,1,47,229.13c3.66,1,6.3,2.14,1.34,5.33-1.36.88-1,2.25-.44,3.51a73.71,73.71,0,0,0-20.41,19.51,101,101,0,0,0-19,48.13c-2.82,22.49,1.41,43.67,13.35,62.14,23.14,35.78,56.94,51.62,99.44,45.94,29.36-3.92,52.5-19.11,69.1-43.7,8.69-12.87,13.72-27.32,16.18-42.6.62-3.82,1.33-8-1.72-11.44a96.74,96.74,0,0,0,3-28.85A5.89,5.89,0,0,1,208.94,282.89Z"/><path class="cls-6" d="M47.88,238c-.57-1.26-.92-2.63.44-3.51,5-3.19,2.32-4.37-1.34-5.33,11.3-7.67,23.29-13.76,36.9-16.14l4.89-.84c3,3.33,6.88,1.6,10.34,1.74,12.73.5,23.84,4,29.55,16.53,2.67,5.86,7,10.08,11.46,14.24,11.7,10.86,25,18.07,41.58,17.34,8.16-.36,13.74,4.1,18,10.64,1.18,1.82,2.45,3.57,3.6,5.4,1,1.64,2.2,2.94,4.34,2.83a8.17,8.17,0,0,0,.84.14l.51,1.88a5.89,5.89,0,0,0-1.1,4.21,96.74,96.74,0,0,1-3,28.85l-4,2.05c-4.15-18.6-13.39-33.51-30.84-42.41-18.55-9.47-35.63-21.18-52.54-33.27C99.84,229.73,80.93,226.16,60.9,237,56.49,236.43,52.24,238,47.88,238Z"/><path class="cls-7" d="M207.59,280.87c-2.14.11-3.31-1.19-4.34-2.83-1.15-1.83-2.42-3.58-3.6-5.4-4.21-6.54-9.79-11-18-10.64-16.62.73-29.88-6.48-41.58-17.34-4.48-4.16-8.79-8.38-11.46-14.24-5.71-12.54-16.82-16-29.55-16.53-3.46-.14-7.37,1.59-10.34-1.74,9.67-2.67,19.5-2.49,29.38-1.8,2.62.19,5.24.34,7.86.51,8.06,1,15.39,4.31,22.85,7.22.07,3-1.93,4.8-4.06,6.47-4,3.16-5,7.48-2.45,11.51,5.36,8.35,12.3,14.74,23.18,15,5.27.1,8.69-1.92,9.78-7.15a17.28,17.28,0,0,1,3.58-7c13.27,11.9,24.32,25.3,28.93,43C207.73,280.22,207.65,280.55,207.59,280.87Z"/><path class="cls-8" d="M441.84,56.07c1.09,13.66-3.72,25.53-11.74,36.09-20.56,27.08-57.9,30.83-83.18,8-13.65-12.32-19.31-28.3-17.76-46.71.78-9.24,3.26-18,8.35-25.82,1.43-2.2,2.5-4.75,5.24-5.78,1.65,1.31,3.36-.09,5,.11a33.72,33.72,0,0,1-2.14,3.33A52.72,52.72,0,0,0,333.75,60c.21,27.83,24.7,53.15,55.74,50,19.62-2,40.79-16.77,45.86-39.3,1.42-6.32.85-12.47,1.47-18.68C438.72,53.09,439.29,55.8,441.84,56.07Z"/><path class="cls-9" d="M441.84,56.07c-2.55-.27-3.12-3-5-4.06-2.92-5.87-6.58-11.17-12.34-14.61-15.76-9.39-33-15.16-50.8-18.63-8.58-1.68-17.91-2.86-25.89,3.24-1.68-.2-3.39,1.2-5-.11,5.1-8,12.39-13.19,21-16.84l1.2-.81L366.64,4c3.56,3.21,8.53,2.71,12.62,5.07a115.73,115.73,0,0,0,31.28,12.38c9,2.12,18.65,3.85,24.72,12.33.5.7,1.73.89,2.62,1.31A41.68,41.68,0,0,1,441.84,56.07Z"/><path class="cls-10" d="M180.92,124.17c-11.12,21.07-40.81,26.28-59.88,10.51-18.08-15-20.71-40.11-6.15-58.46a24,24,0,0,1,6-5.17,25.36,25.36,0,0,1,8.92.94l0,2c-3.12,1.82-6.57,2.91-9.06,6-10.53,12.91-12,31.84.13,45.21,8.36,9.25,18.55,13.52,30.81,11.45,12.11-2,21.36-8.15,25.1-20.65l2-1C179.55,118.07,180.23,121.12,180.92,124.17Z"/><path class="cls-11" d="M434.65,116c3.9-5.76,9.93-8.89,15.63-12.31,3.21-1.91,6.9-3,10.37-4.47,2.45,5.21,10.35,8.42,17.15,7l3.92.12a2.68,2.68,0,0,0,2.34,1.61c7.58-.06,15.22,1,22.72-.87,2.74-.7,5.43-1.59,7.07-4.19,11.72,4.48,20,12.85,26.65,23.21-1.9-.06-2.81-1.52-4-2.69a41.39,41.39,0,0,0-12-7.79c-7.53-3.53-15.49-3.1-23.38-3.54-9-.49-17.93-.57-26.86-1.28-12.6-1-25.21-2.71-36.76,4.59A8.8,8.8,0,0,1,434.65,116Z"/><path class="cls-12" d="M434.65,116a8.8,8.8,0,0,0,2.89-.63c11.55-7.3,24.16-5.58,36.76-4.59,8.93.71,17.91.79,26.86,1.28,7.89.44,15.85,0,23.38,3.54a41.39,41.39,0,0,1,12,7.79c1.18,1.17,2.09,2.63,4,2.69,3.12,4.64,6.06,9.37,7.21,15-2.41-.38-3.75-2.23-4.87-4-9.36-14.84-23.57-20.49-40.28-22-12.42-1.15-24.81-2.18-37.29-2-13.09.23-24.83,3.78-34.33,13.3a23.81,23.81,0,0,1-8.05,5.74A39.94,39.94,0,0,1,434.65,116Z"/><path class="cls-13" d="M385.82,211l5.94-1.07a6.44,6.44,0,0,0,4-2c2.76-1.11,5.71-2,7-5.06,7.43,2.26,15.33,3.19,22,7.67-6.88,3.43-14.54,4.06-21.83,6-7,1.86-14.14,3.25-21.21,4.84C381.58,217.36,384.71,214.58,385.82,211Z"/><path class="cls-14" d="M131.78,65l6.06-1.88a6.66,6.66,0,0,0,2.28.81c8.24-.52,13.26,3.54,16.17,10.93,1,2.48,2.65,4.56,5.5,5.23l3.08,4c.33,2.35,2.23,3.14,4,4,7.22,3.63,14.16,7.5,16.1,16.36.14.65,1.13,1.11,1.73,1.66a15.58,15.58,0,0,1-1.08,7l-4.77-1c.6-5.9-1.81-10.39-5.94-14.54-6.54-6.58-14.76-11.27-20.62-18.54C148.75,72,141.49,68.73,132.86,68Z"/><path class="cls-15" d="M437.88,35.07c-.89-.42-2.12-.61-2.62-1.31-6.07-8.48-15.69-10.21-24.72-12.33A115.73,115.73,0,0,1,379.26,9.05C375.17,6.69,370.2,7.19,366.64,4a26.41,26.41,0,0,1,9.06-3,6.22,6.22,0,0,0,4.1-.84l4.92,0c.3,4.18-.73,9,4.1,11.35a105.92,105.92,0,0,0,13.62,5.84c7.3,2.4,14.6,3.31,20.52-3.36C430.13,19.43,434.86,26.65,437.88,35.07Z"/><path class="cls-16" d="M186.71,106.05c-.6-.55-1.59-1-1.73-1.66C183,95.53,176.1,91.66,168.88,88c-1.78-.89-3.68-1.68-4-4a25.48,25.48,0,0,0,17.76,1.11C185.67,91.77,187.72,98.61,186.71,106.05Z"/><path class="cls-17" d="M423,13.94c-5.92,6.67-13.22,5.76-20.52,3.36a105.92,105.92,0,0,1-13.62-5.84C384,9.08,385,4.29,384.72.11l4.07-.06c.24,2.75-1,6,1.08,8.13,4.78,4.89,11,6.93,17.69,7.9,5.39.79,8.67-1.82,11.23-6Z"/><path class="cls-18" d="M182.63,85.11A25.48,25.48,0,0,1,164.87,84l-3.08-4c-3.79-4.75-2.8-10.41-3-15.84a19.62,19.62,0,0,1,8,3.79c-6.24,6.29-6.24,8.75,0,12l1,1c2.45,4.1,5.07,3.6,7.82.31.74-.89,1.6-1.66,2.41-2.49A18,18,0,0,1,182.63,85.11Z"/><path class="cls-19" d="M418.79,10.05c-2.56,4.21-5.84,6.82-11.23,6-6.69-1-12.91-3-17.69-7.9C387.78,6.05,389,2.8,388.79.05c2.39,0,4.84-.39,7.13.71-4.32,6.12-3.39,9,3.78,11.39,1.4.47,2.84.82,4.28,1.16,7.27,1.71,8.95.14,7.81-7.25C414.17,7.31,416.79,8.14,418.79,10.05Z"/><path class="cls-20" d="M411.79,6.06c1.14,7.39-.54,9-7.81,7.25-1.44-.34-2.88-.69-4.28-1.16-7.17-2.43-8.1-5.27-3.78-11.39l6.9,1.52c-.64,1.6-2.41,1.54-3.53,2.41-1.78,1.4-1.9,3.33-.13,4.54,2.46,1.7,5.6,2.95,8.21.91,2.39-1.86-.43-3.71-1.11-5.53l-.52-1.38A11.19,11.19,0,0,1,411.79,6.06Z"/><path class="cls-16" d="M158.76,64.21c.23,5.43-.76,11.09,3,15.84-2.85-.67-4.52-2.75-5.5-5.23-2.91-7.39-7.93-11.45-16.17-10.93a6.66,6.66,0,0,1-2.28-.81C145,60.45,151.85,62.57,158.76,64.21Z"/><path class="cls-21" d="M178,78.87c-.81.83-1.67,1.6-2.41,2.49-2.75,3.29-5.37,3.79-7.82-.31,2.54-.14,5.44-.24,4.6-3.9-.58-2.5-2.63-4.69-5.4-3.66-3.95,1.46-.54,4-.3,6.09a3.94,3.94,0,0,0,.1.47c-6.25-3.3-6.25-5.76,0-12C171.34,70.81,176.23,73.25,178,78.87Z"/><path class="cls-22" d="M513.85,102.84c-1.64,2.6-4.33,3.49-7.07,4.19-7.5,1.9-15.14.81-22.72.87a2.67,2.67,0,0,1-2.34-1.62c0-.41,0-.81,0-1.22h16c5.17,1.23,7.69-.08,10-5.22C509.92,100.62,512.29,100.92,513.85,102.84Z"/><path class="cls-23" d="M480.79,95.05l11.92.14c2.59,4-1,5.53-3,7.76h-3.93C484.22,100.26,478.23,100.37,480.79,95.05Z"/><path class="cls-24" d="M405.74,3.23l.52,1.38c.68,1.82,3.5,3.67,1.11,5.53-2.61,2-5.75.79-8.21-.91-1.77-1.21-1.65-3.14.13-4.54,1.12-.87,2.89-.81,3.53-2.41Z"/><path class="cls-25" d="M485.81,102.94h3.93c7.74.12,8.27-.23,9-5.93l4,1c.43,3.84-1.77,5.8-5,7h-16c0-.64,0-1.29-.08-1.93Z"/><path class="cls-22" d="M477.8,106.17c-6.8,1.44-14.7-1.77-17.15-7,1.87-1.2,4-1.23,6.1-1.37,1.29,5.38,3.12,6.64,9,6.23l1.93.07C477.74,104.8,477.77,105.49,477.8,106.17Z"/><path class="cls-26" d="M180.86,112l4.77,1a19.3,19.3,0,0,1-4.71,11.17c-.69-3-1.37-6.1-2.06-9.15C179.53,114,180.19,113,180.86,112Z"/><path class="cls-27" d="M131.78,65,132.86,68a5.53,5.53,0,0,1-3,4,25.36,25.36,0,0,0-8.92-.94C123.69,67.52,127.57,66,131.78,65Z"/><path class="cls-25" d="M477.7,104.12l-1.93-.07c-2.9-1.53-5.51-3.28-5-7.18a12.2,12.2,0,0,1,6-1.8c-1.59,3.63-.81,6.38,3,8Z"/><path class="cls-28" d="M498.75,97c-.74,5.7-1.27,6-9,5.93,1.93-2.23,5.56-3.8,3-7.76Z"/><path class="cls-28" d="M479.75,103.09c-3.78-1.64-4.56-4.39-3-8l4,0c-2.56,5.32,3.43,5.21,5,7.89l-4.12.18Z"/><path class="cls-29" d="M497.77,105.05c3.25-1.22,5.45-3.18,5-7l5,1.8C505.46,105,502.94,106.28,497.77,105.05Z"/><path class="cls-29" d="M470.73,96.87c-.47,3.9,2.14,5.65,5,7.18-5.9.41-7.73-.85-9-6.23Z"/><path class="cls-17" d="M379.8.16a6.22,6.22,0,0,1-4.1.84A5.91,5.91,0,0,1,379.8.16Z"/><path class="cls-15" d="M364.91,4.25l-1.2.81Z"/><path class="cls-30" d="M385.82,211c-1.11,3.56-4.24,6.34-4,10.41-11.73,3.83-23.84,6-35.83,8.77-1.76-4.82-.26-8.37,4.13-10.54,5.2-2.57,11-2.2,16.44-3.73C372.92,214.14,379.39,212.65,385.82,211Z"/><path class="cls-30" d="M395.79,208a6.44,6.44,0,0,1-4,2C392.53,208.13,393.55,206.8,395.79,208Z"/><path class="cls-31" d="M157.89,222.82c5.68.94,9.46,5.16,14,8.1-2.89,2.88-1,6.31-1,9.49-.11,5.48-2.1,7.42-7.57,7.58-6.34.18-10.51-3.64-14.53-7.65-6-6-4.56-11.51,3.6-14C154.54,225.69,157.1,225.64,157.89,222.82Z"/><path class="cls-32" d="M157.89,222.82c-.79,2.82-3.35,2.87-5.53,3.53-8.16,2.48-9.62,8-3.6,14,4,4,8.19,7.83,14.53,7.65,5.47-.16,7.46-2.1,7.57-7.58.06-3.18-1.88-6.61,1-9.49,2.63,1.64,5.87,2.56,7,6a17.28,17.28,0,0,0-3.58,7c-1.09,5.23-4.51,7.25-9.78,7.15-10.88-.22-17.82-6.61-23.18-15-2.59-4-1.57-8.35,2.45-11.51,2.13-1.67,4.13-3.42,4.06-6.47C152.26,218.93,155.87,219.37,157.89,222.82Z"/><path class="cls-5" d="M207.59,280.87c.06-.32.14-.65.23-1l.61,1.1A8.17,8.17,0,0,1,207.59,280.87Z"/><path class="cls-33" d="M478.28,120c12.29.55,24.56,1.31,36.13,6.09,13.45,5.55,20.26,16.37,22.27,30.18,4.52,31-20.34,59.65-51.29,61.56-31.38,1.92-56.85-21.88-57.74-52-.47-16.11,5.19-28.79,18.12-38.33a33.34,33.34,0,0,1,16.13-6.19C467.3,120.65,472.74,119.42,478.28,120Z"/><path class="cls-34" d="M200.81,318l4-2.05c3,3.43,2.34,7.62,1.72,11.44-2.46,15.28-7.49,29.73-16.18,42.6-16.6,24.59-39.74,39.78-69.1,43.7-42.5,5.68-76.3-10.16-99.44-45.94C9.89,349.28,5.66,328.1,8.48,305.61a101,101,0,0,1,19-48.13A73.71,73.71,0,0,1,47.88,238c4.36,0,8.61-1.54,13-1,.58,2.05,2.4,2.6,4,3.42s4.31.21,4.18,2.7-1.93,4-4.27,5C48.36,255.53,38.23,269,31.55,285c-7.68,18.33-8,37.08-2.33,56.48,4.89,16.59,14.86,29.07,27.71,39.31,25.14,20,62,24.05,93.1,5,15.8-9.67,27.38-23,34.19-40.33,2.53-6.45,3-13.24,3.63-20,.5-5.64,2.45-6.84,6.67-4C199.32,324.63,200.11,324.2,200.81,318Z"/><path class="cls-35" d="M200.81,318c-.7,6.2-1.49,6.63-6.29,3.4-4.22-2.84-6.17-1.64-6.67,4-.6,6.79-1.1,13.58-3.63,20-6.81,17.35-18.39,30.66-34.19,40.33-31.14,19.05-68,15-93.1-5C44.08,370.52,34.11,358,29.22,341.45c-5.71-19.4-5.35-38.15,2.33-56.48,6.68-16,16.81-29.44,33.29-36.81,2.34-1,4.15-2.65,4.27-5s-2.67-1.94-4.18-2.7-3.45-1.37-4-3.42c20-10.84,38.94-7.27,56.53,5.32,16.91,12.09,34,23.8,52.54,33.27C187.42,284.49,196.66,299.4,200.81,318Z"/><path class="cls-36" d="M347.79,22c8-6.1,17.31-4.92,25.89-3.24,17.83,3.47,35,9.24,50.8,18.63,5.76,3.44,9.42,8.74,12.34,14.61-.62,6.21-.05,12.36-1.47,18.68C430.28,93.22,409.11,108,389.49,110c-31,3.12-55.53-22.2-55.74-50a52.72,52.72,0,0,1,11.9-34.62A33.72,33.72,0,0,0,347.79,22Zm-8,34.16c0,27.31,20.29,48,44.43,47.83,23.32-.15,42.6-16.92,46.3-40.28C432,54.8,427.41,45,420.33,40.54c-15.47-9.71-32.49-15-50.33-17.92a19.46,19.46,0,0,0-13.79,2.77C343.69,33.11,340.86,45.5,339.82,56.17Z"/><path class="cls-37" d="M176.84,116c-3.74,12.5-13,18.61-25.1,20.65-12.26,2.07-22.45-2.2-30.81-11.45-12.1-13.37-10.66-32.3-.13-45.21,2.49-3,5.94-4.14,9.06-6,9.35,5.94,18.92,11.72,26.7,19.63C163.59,100.81,171.21,107.53,176.84,116Z"/><path class="cls-38" d="M176.84,116c-5.63-8.46-13.25-15.18-20.28-22.34C148.78,85.74,139.21,80,129.86,74l0-2a5.53,5.53,0,0,0,3-4c8.63.71,15.89,4,21.44,10.9,5.86,7.27,14.08,12,20.62,18.54,4.13,4.15,6.54,8.64,5.94,14.54-.67,1-1.33,2-2,3Z"/><path class="cls-29" d="M479.75,103.09l1.94,0c0,.65.06,1.3.08,1.94,0,.41,0,.81,0,1.22l-3.92-.11c0-.68-.06-1.37-.1-2Z"/><path class="cls-39" d="M166.81,80.05a3.94,3.94,0,0,1-.1-.47c-.24-2.08-3.65-4.63.3-6.09,2.77-1,4.82,1.16,5.4,3.66.84,3.66-2.06,3.76-4.6,3.9C167.48,80.72,167.14,80.39,166.81,80.05Z"/><path class="cls-40" d="M339.82,56.17c1-10.67,3.87-23.06,16.39-30.78A19.46,19.46,0,0,1,370,22.62c17.84,3,34.86,8.21,50.33,17.92C427.41,45,432,54.8,430.55,63.72c-3.7,23.36-23,40.13-46.3,40.28C360.11,104.15,339.79,83.48,339.82,56.17Z"/></g></g></svg>