<svg xmlns="http://www.w3.org/2000/svg" viewBox="0 0 474.069 349.691"><defs><style>.cls-1{fill:#e6b366;}.cls-2{fill:#afff6b;}.cls-3{fill:#e66868;}.cls-4{fill:#12ff00;}.cls-5{fill:#e64545;}.cls-6{fill:#e69427;}.cls-7{fill:#e67e00;}.cls-8{fill:#ccffa6;}.cls-9{fill:#e60000;}.cls-10{fill:#006662;}.cls-11{fill:#fff;}</style></defs><title>ic5_1</title><g id="Capa_2" data-name="Capa 2"><g id="Capa_1-2" data-name="Capa 1"><path class="cls-1" d="M296.116,262.684c-3.963,6.871-8.546,13.051-12.888,19.495-14.885,22.09-29.864,44.072-44.754,66.157-1.2,1.78-1.8,1.828-3.02.017q-28.031-41.556-56.155-83a4.146,4.146,0,0,1-1.139-2.536h2.649q55.783,0,111.566,0c1.267,0,2.534-.049,3.8-.077Z"/><path class="cls-2" d="M391.976,53.972Q374.468,28.06,356.921,2.193c-.327-.484-.614-1.013-1.108-1.833H474.069c-3.913,5.815-7.61,11.339-11.331,16.835q-22.727,33.569-45.5,67.087c-.821,1.2-1.274,3.261-2.984,3.113"/><path class="cls-3" d="M59.654,87.392c-.975.351-1.335-.689-1.816-1.4Q29.229,43.748.63,1.49C.466,1.248.329.974,0,.4H117.8c-.189,1.532-1.24,2.4-1.971,3.48Q88.418,44.415,60.972,84.911c-.331.489-.6,1.052-.9,1.58A.792.792,0,0,0,59.654,87.392Z"/><path class="cls-4" d="M296.59,87.759c-4.544-5.608-8.421-12.008-12.559-18.094q-23.195-34.106-46.3-68.32a4.137,4.137,0,0,0-.587-.589c.414-1.089,1.188-.62,1.794-.62Q296.633.1,354.322.122a8.355,8.355,0,0,1,1.113.21c-2.285,3.422-4.393,6.62-6.535,9.781q-25.663,37.881-51.331,75.758A18.13,18.13,0,0,0,296.59,87.759Z"/><path class="cls-5" d="M236.8.76c-6.853,10.014-13.729,20-20.553,30.047q-18.48,27.206-36.917,54.459c-.609.9-1.333,1.663-2,2.49-4.022-6.942-8.669-13.181-13.065-19.7q-21.992-32.61-44.088-65.1c-.494-.73-.934-1.522-1.429-2.334.79-.923,1.664-.483,2.442-.483Q177.7.1,234.219.147C235.076.147,236.086-.45,236.8.76Z"/><path class="cls-6" d="M237.2,176.015c.8-1.245,1.886-.625,2.822-.626q57.712-.065,115.424-.051-13.341,19.83-26.688,39.655-15.214,22.525-30.49,44.985c-.659.97-1.182,2.154-2.158,2.7l.06.049q-28.6-42.2-57.208-84.39C238.413,177.527,237.793,176.789,237.2,176.015Z"/><path class="cls-7" d="M118.457,174.982c1.041.686,2.159.359,3.238.36q56.1.028,112.2.047c.935,0,2.019-.619,2.817.626-6.853,10.013-13.73,20-20.553,30.046q-18.22,26.832-36.392,53.721c-2.029,3-2.256,2.981-4.215.086q-27.82-41.116-55.647-82.225A7.5,7.5,0,0,1,118.457,174.982Z"/><path class="cls-8" d="M355.438,175.339q-15.971-23.674-31.942-47.348-12.9-19.1-25.8-38.175a23.684,23.684,0,0,1-1.148-2.136c.921.068,1.842.194,2.764.194q55.928.015,111.857.009h3.61c-3.16,4.706-5.945,8.885-8.755,13.035q-24.661,36.408-49.335,72.8C356.3,174.291,355.856,174.8,355.438,175.339Z"/><path class="cls-9" d="M177.376,87.7c-3.208,5.83-7.1,10.9-10.719,16.265q-24.032,35.605-48.166,71.094c-4.123-4.9-7.538-10.65-11.224-16.067Q84.048,124.875,60.94,90.635c-.443-.655-.847-1.355-1.354-2.17.937-.976,1.972-.557,2.9-.558q56.058-.037,112.117-.03C175.529,87.877,176.452,87.759,177.376,87.7Z"/><path class="cls-10" d="M59.654,87.392a.792.792,0,0,1,.422-.9Z"/><path class="cls-11" d="M331.531,163.394H142.765c.076-1.444.942-2.105,1.521-2.961q45.184-66.8,90.4-133.561c2.254-3.33,2.272-3.348,4.336-.3q45.633,67.382,91.257,134.774C330.609,161.839,330.907,162.374,331.531,163.394Z"/></g></g></svg>