<svg xmlns="http://www.w3.org/2000/svg" viewBox="0 0 528.127 458.814"><defs><style>.cls-1{fill:#fa00a9;}.cls-2{fill:#ff5345;}.cls-3{fill:#1ab556;}.cls-4{fill:#fa000f;}.cls-5{fill:#fa00c4;}.cls-6{fill:#ff1400;}.cls-7{fill:#fa001e;}.cls-8{fill:#fc009f;}.cls-9{fill:#1cb595;}.cls-10{fill:#fc00ec;}.cls-11{fill:#ff6557;}.cls-12{fill:#e31200;}.cls-13{fill:#fa0068;}.cls-14{fill:#1cb5c9;}.cls-15{fill:#1cb5e6;}.cls-16{fill:#1ab5af;}.cls-17{fill:#fc0082;}.cls-18{fill:#fa0043;}.cls-19{fill:#ff2800;}.cls-20{fill:#16151a;}</style></defs><title>ic6</title><g id="Capa_2" data-name="Capa 2"><g id="Capa_1-2" data-name="Capa 1"><path class="cls-1" d="M395.615,154.255a10.192,10.192,0,0,0,2.628-1.362,1.069,1.069,0,0,1-.831-1.1c-.689.412-1.283,1.066-1.923,1.472A.931.931,0,0,1,395.615,154.255Z"/><path class="cls-1" d="M409,131.232c1.79-2.827,1.619-4.93-.057-7.67-4.326-7.074-8.359-14.327-12.509-21.509a.71.71,0,0,1-.473-.222c-6.973.058-13.978.557-20.908.04-5.909-.44-9.36,1.334-12.017,6.824-2.994,6.185-6.1,12.468-10.753,17.72l-.508.981a1.013,1.013,0,0,0-.089.767c1.989.35,2.381,2.185,3.187,3.558,3.37,5.74,6.843,11.433,9.9,17.341,1.537,2.97,3.449,3.893,6.676,3.772,6.483-.245,12.982-.083,19.475-.07,2.655.006,4.078.017,4.571.5.64-.406,1.234-1.06,1.923-1.472a4.694,4.694,0,0,1,.807-2.082C401.867,143.585,405.184,137.253,409,131.232Z"/><path class="cls-2" d="M438.141,174.209c-3.215-5.422-6.573-10.782-9.391-16.408-1.916-3.825-4.423-5.042-8.615-4.8-6.615.384-13.27.041-19.907.124a5.884,5.884,0,0,1-1.985-.233,10.192,10.192,0,0,1-2.628,1.362,19.175,19.175,0,0,1-1.686,3.321c-3.386,5.923-6.7,11.891-10.262,17.709a5.371,5.371,0,0,0-.038,6.375c3.793,6.261,7.292,12.7,11.014,19,1.556,2.635.864,3.5-2.05,3.465-7.325-.073-14.65.018-21.975-.042-2.106-.017-3.757.207-4.957,2.38-3.858,6.993-7.91,13.88-11.946,20.773a3.555,3.555,0,0,0-.152,4.122c4.729,7.823,9.357,15.707,14.021,23.569l28.007-.3,1.426-.187c4.157-7.362,8.237-14.769,12.52-22.057a5.069,5.069,0,0,0,0-5.916c-3.606-5.962-6.886-12.121-10.526-18.061-1.951-3.183-1.988-4.552,2.346-4.414,6.8.216,13.615-.1,20.412.128,3.106.106,4.8-1.016,6.236-3.692,3.214-5.993,6.71-11.836,10.183-17.686.784-1.321,1-3.326,3.189-3.371,0-.61.006-1.218.007-1.823C439.211,177.5,438.93,175.541,438.141,174.209Z"/><path class="cls-3" d="M396.9,407.518c3.124,7.749,7.992,14.545,12.034,21.789,1.559,2.795,1.857,4.9.08,7.731-3.8,6.06-7.282,12.327-10.735,18.6a5.432,5.432,0,0,1-5.552,3.175c-7.323-.179-14.655-.164-21.979-.008a5.369,5.369,0,0,1-5.534-3.173c-3.4-6.3-7.124-12.42-10.594-18.681-1.6-2.885-2.7-3.338-4.469-.051-3.4,6.3-7.158,12.4-10.6,18.677a5.447,5.447,0,0,1-5.535,3.233c-7.323-.169-14.655-.152-21.979-.008-2.626.051-4.277-.7-5.582-3.107q-5.351-9.879-11.167-19.5c-1.292-2.144-1.2-3.723,0-5.889,4.178-7.544,9.246-14.607,12.415-22.7.244-.052.493-.093.743-.127,6.636.081,13.348.822,19.888.07,7.312-.84,11.236,2.008,14.16,8.347,2.654,5.753,6.252,11.069,9.928,17.433,4.563-7.954,8.7-14.915,12.558-22.027a6.086,6.086,0,0,1,6.236-3.655c8.29.136,16.586-.111,24.88-.205A5.05,5.05,0,0,1,396.9,407.518Z"/><path class="cls-4" d="M307.944,51.141c-4.119-7.4-8.126-14.865-12.419-22.163-1.448-2.461-1.5-4.311.006-6.759,3.737-6.091,7.278-12.309,10.683-18.593,1.334-2.461,2.837-3.666,5.8-3.582,7.311.208,14.634.174,21.948.013a5.48,5.48,0,0,1,5.563,3.17c4.223,7.54,8.64,14.971,12.983,22.439,0,0-.045.271-.045.272-4.125,6.975-8.4,13.868-12.306,20.961-1.718,3.118-3.7,4.45-7.38,4.337-8.1-.249-16.224.019-24.337.076A.953.953,0,0,1,307.944,51.141Z"/><path class="cls-5" d="M352.461,25.937s.045-.276.045-.271c4.349-7.625,8.77-15.217,13-22.913A4.618,4.618,0,0,1,370.259.1q11.446.169,22.9,0c2.225-.032,3.646.549,4.786,2.611q5.657,10.232,11.692,20.25a4.7,4.7,0,0,1-.122,5.477c-4.5,7.545-8.878,15.168-13.3,22.761l-.123.183c-8.147-.084-16.3-.383-24.437-.153-3.526.1-5.342-1.2-6.952-4.135C360.787,39.951,356.561,32.979,352.461,25.937Z"/><path class="cls-6" d="M484.544,203.783c8.639.105,17.279.308,25.917.258A5.46,5.46,0,0,1,516,207.219c3.59,6.559,7.37,13.018,11.217,19.431a4.675,4.675,0,0,1,.054,5.477q-5.909,9.826-11.487,19.851a4.735,4.735,0,0,1-4.72,2.822c-8.971-.147-17.945-.136-26.914-.179,0,0-.044-.161-.044-.161-3.437-7.561-7.947-14.526-12.182-21.635a5.811,5.811,0,0,1,0-6.8c4.232-7.109,8.764-14.06,12.166-21.639l.024-.45Z"/><path class="cls-7" d="M220.5,407.631c3.1,7.73,7.852,14.558,11.942,21.74,1.564,2.746,1.9,4.788.1,7.628-3.815,6.02-7.271,12.276-10.68,18.541-1.262,2.321-2.753,3.327-5.461,3.267-7.463-.168-14.934-.106-22.4-.029-2.168.023-3.745-.434-4.89-2.529-4.051-7.418-8.26-14.75-12.409-22.114q-.013-.81-.026-1.62c4.151-7.373,8.379-14.7,12.409-22.143,1.251-2.309,2.989-2.675,5.316-2.672,8.468.009,16.937-.13,25.405-.213A4.844,4.844,0,0,1,220.5,407.631Z"/><path class="cls-6" d="M484.544,203.783l-.429.149-.024.45c-8.3-.113-16.6-.268-24.893-.314-2.263-.012-4.065-.189-5.354-2.574-4.023-7.447-8.3-14.758-12.472-22.121,0-.608.007-1.216.008-1.821,4.107-7.231,8.27-14.433,12.288-21.716a4.641,4.641,0,0,1,4.7-2.783c7.825.145,15.654.122,23.48.011a4.339,4.339,0,0,1,4.331,2.572q5.75,10.229,11.751,20.314a4.342,4.342,0,0,1,.017,5.05C493.409,188.551,489,196.181,484.544,203.783Z"/><path class="cls-6" d="M395.591,254.631l1.426-.187c8.115.12,16.232.4,24.343.283,3.21-.044,5.161.833,6.708,3.779,3.159,6.013,6.688,11.835,10.161,17.679.774,1.3.98,3.368,3.263,3.209q.007,1,.014,2c-2.261-.153-2.532,1.867-3.315,3.186-3.472,5.855-6.99,11.693-10.189,17.7-1.466,2.754-3.32,3.624-6.328,3.54-6.971-.193-13.959-.269-20.923.029-3.369.144-5.049-1.141-6.55-3.964q-4.908-9.232-10.439-18.127c-1.537-2.479-1.439-4.358.017-6.808,3.982-6.7,7.695-13.565,11.514-20.365Q395.442,255.606,395.591,254.631Z"/><path class="cls-8" d="M307.944,51.141a.964.964,0,0,0,.5.172c4.036,7.034,7.887,14.183,12.188,21.049,1.964,3.135,1.747,5.454-.106,8.5-4.206,6.92-8.006,14.086-11.972,21.152a.474.474,0,0,1-.631.347c-8.43-.986-16.889-.277-25.333-.367-2.62-.028-4.239-.709-5.536-3.1-3.56-6.56-7.307-13.021-11.136-19.428-1.24-2.073-1.393-3.671-.063-5.843,3.809-6.223,7.477-12.544,10.907-18.982,1.467-2.753,3.3-3.566,6.3-3.5C291.349,51.318,299.648,51.164,307.944,51.141Z"/><path class="cls-4" d="M176.674,432.516l.027,1.619c-2.348.133-2.656,2.288-3.524,3.749-3.391,5.712-6.743,11.453-9.9,17.3-1.323,2.449-2.828,3.665-5.792,3.579-7.3-.212-14.619-.123-21.927-.038-2.324.027-4.056-.371-5.322-2.667q-5.65-10.254-11.7-20.285c-1.243-2.069-.788-3.642.283-5.5,3.722-6.47,7.335-13,10.989-19.51l1.971-3.361.332.016c8.306.108,16.615.367,24.917.246a6.1,6.1,0,0,1,6.241,3.694c3.219,6,6.7,11.87,10.155,17.749C174.224,430.456,174.593,432.335,176.674,432.516Z"/><path class="cls-6" d="M29.23,177.431c4.133-7,8.38-13.932,12.339-21.027a5.774,5.774,0,0,1,5.933-3.352q10.953.268,21.916,0c2.719-.067,4.146.966,5.44,3.265,3.818,6.786,7.892,13.429,11.866,20.128.091,1.044.983.985,1.668,1.211,0,.535,0,1.069-.006,1.607-2.02.267-2.417,2.1-3.219,3.464-3.451,5.866-6.974,11.7-10.162,17.707-1.439,2.713-3.157,3.724-6.233,3.686-8.458-.1-16.92.153-25.381.266a4.578,4.578,0,0,1-.836-.01,2.256,2.256,0,0,0-.794-2.963l-12.585-21.95Z"/><path class="cls-6" d="M87.58,280.913c-4.239,7.152-8.6,14.238-12.652,21.493-1.4,2.508-2.983,3.488-5.865,3.406-7.155-.2-14.325-.232-21.477.011-3.147.107-4.759-1.116-6.224-3.744-3.884-6.971-8.065-13.777-12.128-20.648l-.049-2.034,12.581-21.952a2.768,2.768,0,0,0,1.1-2.99l1.274.014c8.273.119,16.547.357,24.818.291a5.8,5.8,0,0,1,5.885,3.379c4.107,7.369,8.527,14.563,12.824,21.826Z"/><path class="cls-9" d="M308.448,407.474c-.25.033-.5.074-.743.126-8.474.016-16.953-.047-25.428.095a5.03,5.03,0,0,1-5.159-2.9c-3.681-6.7-7.474-13.341-11.442-19.873-1.259-2.072-.908-3.559.2-5.431,3.8-6.441,7.562-12.908,11.14-19.473,1.284-2.357,2.862-3.157,5.522-3.174,8.463-.056,16.939.548,25.391-.317a1.445,1.445,0,0,1,.721.174c4.079,7.372,8.026,14.821,12.3,22.077a6.1,6.1,0,0,1-.06,7.2C316.579,393.045,312.573,400.3,308.448,407.474Z"/><path class="cls-4" d="M396.089,51.384l.123-.183c8.476,0,16.955.124,25.429-.051,3.007-.062,4.867.792,6.34,3.539,3.374,6.3,7,12.462,10.7,18.57,1.37,2.259,1.488,4.068.08,6.385q-5.7,9.367-10.953,19c-1.382,2.546-3.105,3.416-5.946,3.371-8.473-.132-16.951.01-25.43.042a.759.759,0,0,1-.48-.223c-3.353-7.406-7.7-14.268-11.872-21.212-1.742-2.9-1.923-5.12-.075-8.114C388.266,65.61,392.09,58.442,396.089,51.384Z"/><path class="cls-10" d="M307.918,102.363a.474.474,0,0,0,.631-.347c8.122-.007,16.251.2,24.36-.114,3.713-.143,5.655,1.254,7.349,4.372,3.713,6.833,7.787,13.47,11.714,20.187a3.5,3.5,0,0,1-.2.937,1.007,1.007,0,0,0-.089.765c-4.167,7.366-8.375,14.713-12.477,22.118a4.345,4.345,0,0,1-4.359,2.52q-11.963-.156-23.927.005c-2.173.033-3.261-.9-4.248-2.66-3.817-6.808-7.655-13.61-11.7-20.282-1.293-2.132-.657-3.576.405-5.406C299.625,117.133,303.748,109.734,307.918,102.363Z"/><path class="cls-11" d="M87.58,280.913c.029-.316.057-.632.086-.948,4.265-7.269,8.628-14.482,12.738-21.836a5.758,5.758,0,0,1,5.894-3.392c6.61.19,13.23.118,19.844.018,1.684-.026,3.72.807,4.931-1.264l1.682,1.089c-.2.683-.448,1.371.178,1.98,3.48,6.206,6.714,12.568,10.53,18.56,2.334,3.667,2.674,6.5.109,10.271-3.621,5.324-6.551,11.121-9.744,16.734-.719,1.265-1.8,2.457-1.252,4.122a.853.853,0,0,1-.568.042c-7.1-1.169-14.286-.79-21.36-.356-6.362.391-10.017-1.661-12.737-7.422C95.018,292.385,91.068,286.758,87.58,280.913Z"/><path class="cls-12" d="M441.506,281.393q-.007-1-.013-2c3.986-7.064,8.078-14.07,11.9-21.22,1.361-2.546,3.029-3.445,5.879-3.423,8.275.064,16.553-.172,24.83-.29,0,0,.047.166.044.161,4.646,7.852,9.244,15.739,13.98,23.543,1.173,1.932.592,3.383-.384,5.05-3.868,6.6-7.733,13.2-11.463,19.884a4.77,4.77,0,0,1-4.808,2.691q-11.476-.156-22.958,0a4.7,4.7,0,0,1-4.794-2.672C449.729,295.831,445.589,288.627,441.506,281.393Z"/><path class="cls-6" d="M88.384,179.26c0-.535.006-1.069.01-1.607.05-.418.1-.833.146-1.248,3.968-6.654,8.074-13.231,11.832-20,1.407-2.535,3.035-3.346,5.853-3.361,8.732-.048,17.476.565,26.194-.309l-.153-.044c2.86,8.027,7.9,14.88,12.091,22.183,1.522,2.655,1.61,4.61,0,7.228-4.346,7.077-8.4,14.334-12.566,21.518l-1.067.314c-8.427.034-16.855.02-25.281.135-2.027.028-3.41-.513-4.434-2.365C96.856,194.191,92.6,186.736,88.384,179.26Z"/><path class="cls-13" d="M220.5,407.631a4.987,4.987,0,0,0-.695-.145c-3.968-6.9-7.736-13.933-11.988-20.655-2.065-3.265-1.939-5.668-.029-8.976,4.034-6.983,8.822-13.584,11.564-21.274a5.079,5.079,0,0,1,.96-.1c8.284.97,16.6.329,24.9.353,3.036.008,4.831.888,6.286,3.611,3.445,6.451,7.162,12.76,10.885,19.057,1.111,1.879,1.442,3.366.185,5.435q-5.954,9.8-11.447,19.884c-1.217,2.218-2.729,2.916-5.171,2.878C237.466,407.566,228.982,407.637,220.5,407.631Z"/><path class="cls-6" d="M130.725,203.932l1.067-.314c8.273,1.117,16.587.372,24.88.411,3.192.015,5.16.805,6.72,3.757,3.413,6.464,7.2,12.731,10.887,19.048.873,1.5,1.5,2.76.405,4.55-4.747,7.8-9.355,15.684-14.013,23.537l-27.916-.341-1.683-1.089c-2.693-4.572-4.928-9.5-8.179-13.634-5.6-7.117-5.589-13.393-.164-20.772C126.044,214.577,129.662,209.815,130.725,203.932Z"/><path class="cls-14" d="M353.346,329.393c3.957-6.72,8.028-13.377,11.808-20.195a5.352,5.352,0,0,1,5.5-3.147q11.207.237,22.42,0a4.972,4.972,0,0,1,5.12,2.9c3.609,6.541,7.309,13.037,11.21,19.406,1.45,2.367,1.138,4.155-.166,6.374-4.29,7.3-8.411,14.7-12.6,22.058q-1.024.211-2.049.418c-7.957-.12-15.914-.338-23.87-.3a5.462,5.462,0,0,1-5.53-3.192c-3.234-5.986-6.673-11.864-10.151-17.713-.873-1.469-1.181-3.6-3.462-3.862l-.018-1.546A1.471,1.471,0,0,0,353.346,329.393Z"/><path class="cls-15" d="M351.563,330.585l.018,1.547c-4.122,7.352-8.288,14.68-12.336,22.071a4.724,4.724,0,0,1-4.786,2.686c-8.6-.145-17.21-.136-25.815-.184a1.417,1.417,0,0,0-.718-.175c-4.179-7.392-8.267-14.839-12.593-22.144-1.265-2.136-1.375-3.709-.06-5.875q5.833-9.606,11.207-19.488a5,5,0,0,1,5.117-2.972c7.5.141,15,.162,22.489-.009a5.469,5.469,0,0,1,5.54,3.193c3.842,6.8,7.909,13.47,11.888,20.192Q351.54,330.006,351.563,330.585Z"/><path class="cls-16" d="M396.9,407.518a5.17,5.17,0,0,0-.805-.083c-4.022-7.074-7.9-14.233-12.134-21.182-1.685-2.768-1.8-4.879-.085-7.695,3.786-6.231,7.184-12.7,10.74-19.068l1.982-2.824c8.292.094,16.587.355,24.874.2,3.281-.062,5.105,1.047,6.665,3.88,3.836,6.969,8,13.758,12.029,20.619l-.036,2.034c-4.042,6.865-8.2,13.666-12.068,20.628-1.466,2.639-3.133,3.79-6.245,3.694C413.519,407.467,405.209,407.562,396.9,407.518Z"/><path class="cls-8" d="M132.008,306.289a.853.853,0,0,0,.568-.042c8.483-.05,16.972,0,25.456-.206,2.568-.061,3.832,1,5.019,3.109,3.835,6.809,7.877,13.5,11.839,20.239a1.563,1.563,0,0,0,1.79,1.3q-.007.649-.017,1.3c-2.033.285-2.382,2.155-3.181,3.518-3.456,5.885-6.961,11.748-10.167,17.769-1.452,2.727-3.251,3.7-6.31,3.626-8.155-.2-16.317-.079-24.477-.086a2.28,2.28,0,0,0-.786-.175q-6.465-11.169-12.938-22.332c-.942-1.619-1.666-3.059-.473-5.019C122.971,321.673,127.462,313.964,132.008,306.289Z"/><path class="cls-17" d="M176.663,331.989l.018-1.3q.03-.629.058-1.256c3.975-6.721,8.036-13.393,11.875-20.189a5.478,5.478,0,0,1,5.538-3.2c7.488.168,14.984.146,22.474.01a5.015,5.015,0,0,1,5.132,2.953q5.386,9.857,11.2,19.478a4.943,4.943,0,0,1-.029,5.875c-4.336,7.3-8.428,14.734-12.613,22.119a5.1,5.1,0,0,0-.961.1c-8.656.079-17.311.137-25.966.256a4.043,4.043,0,0,1-4.075-2.208C185.143,347.055,180.887,339.531,176.663,331.989Z"/><path class="cls-6" d="M44.139,254.469l-1.276-.014-27.177.583c-1.581-.438-2.37-1.653-3.135-2.994q-5.7-9.975-11.5-19.893c-.858-1.473-1.59-2.782-.52-4.587,4.329-7.305,8.507-14.7,12.834-22,.455-.767,1.53-1.167,2.318-1.737l26.87.554a4.588,4.588,0,0,0,.837.01c4.286,7.225,8.477,14.508,12.909,21.641,1.519,2.444,1.486,4.322.016,6.793C52.084,239.934,47.55,246.89,44.139,254.469Z"/><path class="cls-18" d="M131.742,356.642a2.345,2.345,0,0,1,.79.174c2.687,7.737,7.5,14.341,11.579,21.317,1.85,3.167,1.788,5.475-.12,8.555-4.191,6.764-7.944,13.8-11.876,20.723l-.334-.015-2.142.508c-7.609-.086-15.221-.334-22.825-.179-3.212.065-5.109-.87-6.689-3.766-3.8-6.965-7.984-13.721-12.013-20.561q-.019-1.016-.038-2.03c4.125-7.015,8.355-13.971,12.319-21.076a5.893,5.893,0,0,1,5.937-3.4C114.8,356.963,123.271,356.746,131.742,356.642Z"/><path class="cls-19" d="M29.23,177.431l-.054,2.032C27.743,178.747,27.82,178.071,29.23,177.431Z"/><path class="cls-19" d="M88.54,176.405c-.048.415-.1.83-.146,1.248-.687-.223-1.579-.164-1.67-1.208Z"/><path class="cls-20" d="M351.972,126.461l.308-.046-.509.981A3.47,3.47,0,0,0,351.972,126.461Z"/><path class="cls-3" d="M219.972,101.478c3.124,7.75,7.992,14.545,12.034,21.789,1.559,2.8,1.856,4.9.079,7.731-3.8,6.061-7.281,12.327-10.734,18.6a5.434,5.434,0,0,1-5.552,3.176c-7.323-.18-14.655-.164-21.979-.009a5.366,5.366,0,0,1-5.534-3.173c-3.4-6.3-7.124-12.419-10.594-18.681-1.6-2.885-2.7-3.338-4.47-.051-3.4,6.3-7.158,12.4-10.6,18.677a5.446,5.446,0,0,1-5.535,3.233c-7.323-.169-14.655-.151-21.98-.008-2.625.052-4.277-.7-5.581-3.107q-5.351-9.879-11.167-19.5c-1.293-2.143-1.2-3.723,0-5.888,4.178-7.545,9.246-14.608,12.415-22.7q.366-.077.743-.127c6.636.082,13.348.823,19.888.071,7.312-.841,11.236,2.007,14.16,8.347,2.653,5.752,6.252,11.068,9.928,17.433,4.563-7.955,8.7-14.915,12.558-22.028a6.085,6.085,0,0,1,6.236-3.654c8.29.135,16.586-.111,24.879-.206A5.169,5.169,0,0,1,219.972,101.478Z"/><path class="cls-9" d="M131.517,101.434c-.25.033-.5.075-.742.126-8.475.016-16.953-.047-25.428.1a5.033,5.033,0,0,1-5.16-2.9c-3.68-6.7-7.473-13.341-11.441-19.872-1.259-2.072-.908-3.559.2-5.432,3.8-6.44,7.562-12.907,11.14-19.473,1.284-2.356,2.862-3.156,5.521-3.174,8.464-.056,16.94.548,25.392-.317a1.446,1.446,0,0,1,.721.175c4.079,7.372,8.026,14.82,12.3,22.076a6.1,6.1,0,0,1-.06,7.2C139.649,87.006,135.643,94.256,131.517,101.434Z"/><path class="cls-14" d="M176.416,23.354c3.957-6.72,8.028-13.377,11.808-20.2a5.351,5.351,0,0,1,5.5-3.146q11.207.237,22.42,0a4.974,4.974,0,0,1,5.12,2.9c3.609,6.54,7.309,13.037,11.21,19.406,1.45,2.367,1.138,4.155-.166,6.373-4.29,7.3-8.411,14.7-12.6,22.059q-1.024.212-2.049.417c-7.957-.119-15.914-.338-23.871-.3a5.463,5.463,0,0,1-5.53-3.193c-3.233-5.986-6.672-11.864-10.15-17.713-.873-1.469-1.181-3.6-3.462-3.862l-.018-1.545A1.473,1.473,0,0,0,176.416,23.354Z"/><path class="cls-15" d="M174.633,24.546l.018,1.546c-4.122,7.353-8.288,14.68-12.336,22.071a4.723,4.723,0,0,1-4.786,2.686c-8.6-.144-17.21-.135-25.815-.184A1.427,1.427,0,0,0,131,50.49c-4.179-7.392-8.267-14.838-12.593-22.144-1.265-2.136-1.375-3.709-.06-5.874q5.832-9.608,11.207-19.489A5,5,0,0,1,134.667.011c7.5.142,15,.162,22.489-.008A5.469,5.469,0,0,1,162.7,3.2c3.842,6.8,7.909,13.471,11.888,20.192Q174.61,23.968,174.633,24.546Z"/><path class="cls-16" d="M219.972,101.478a5.169,5.169,0,0,0-.805-.082c-4.022-7.075-7.905-14.234-12.134-21.182-1.685-2.769-1.8-4.88-.085-7.7,3.785-6.231,7.183-12.7,10.739-19.067l1.983-2.825c8.292.094,16.587.356,24.874.2,3.281-.062,5.1,1.047,6.665,3.88,3.836,6.969,8,13.758,12.029,20.62l-.036,2.033c-4.042,6.866-8.2,13.667-12.068,20.629-1.466,2.638-3.133,3.789-6.245,3.694C236.589,101.427,228.278,101.522,219.972,101.478Z"/></g></g></svg>