<svg xmlns="http://www.w3.org/2000/svg" viewBox="0 0 382.622 401.38"><defs><style>.cls-1{fill:#36197f;}.cls-2{fill:#194c7f;}.cls-3{fill:#19437f;}.cls-4{fill:#412de0;}.cls-5{fill:#0d1541;}.cls-6{fill:#0d2241;}.cls-7{fill:#2db6e0;}.cls-8{fill:#1c0d41;}.cls-9{fill:#2d48e0;}.cls-10{fill:#0d3441;}.cls-11{fill:#802de0;}.cls-12{fill:#25197f;}.cls-13{fill:#250d41;}.cls-14{fill:#130d41;}.cls-15{fill:#200d41;}.cls-16{fill:#702de0;}.cls-17{fill:#6624b2;}.cls-18{fill:#245fb3;}.cls-19{fill:#4024b2;}.cls-20{fill:#fe49fe;}.cls-21{fill:#113252;}.cls-22{fill:#3745fd;}.cls-23{fill:#253ab2;}.cls-24{fill:#246cb3;}.cls-25{fill:#291152;}.cls-26{fill:#df42fe;}.cls-27{fill:#48135c;}.cls-28{fill:#2767c1;}.cls-29{fill:#2c6fce;}.cls-30{fill:#2d77c6;}.cls-31{fill:#2d36c6;}.cls-32{fill:#932dd0;}.cls-33{fill:#3aaefc;}.cls-34{fill:#3b49fc;}.cls-35{fill:#f144fe;}.cls-36{fill:#612de0;}.cls-37{fill:#4d24b2;}.cls-38{fill:#0d2741;}.cls-39{fill:#2d86e0;}.cls-40{fill:#1d1051;}.cls-41{fill:#1f5b97;}.cls-42{fill:#2d78e0;}.cls-43{fill:#3f197e;}.cls-44{fill:#fdfdfd;}.cls-45{fill:#1b0b36;}.cls-46{fill:#3524b3;}.cls-47{fill:#48197e;}.cls-48{fill:#19297f;}.cls-49{fill:#1f0b36;}.cls-50{fill:#cd41fc;}.cls-51{fill:#fcfbfd;}.cls-52{fill:#131a54;}.cls-53{fill:#19677f;}.cls-54{fill:#2491b2;}.cls-55{fill:#104251;}.cls-56{fill:#2e197f;}.cls-57{fill:#512de0;}.cls-58{fill:#262fbc;}.cls-59{fill:#1f279c;}.cls-60{fill:#242db2;}.cls-61{fill:#212aa7;}.cls-62{fill:#10184e;}.cls-63{fill:#8c28c4;}.cls-64{fill:#104751;}.cls-65{fill:#4b1259;}.cls-66{fill:#c12ee4;}.cls-67{fill:#fefefe;}.cls-68{fill:#20529b;}.cls-69{fill:#e647f4;}.cls-70{fill:#cf4bf9;}.cls-71{fill:#1a5781;}.cls-72{fill:#61fdfd;}.cls-73{fill:#30a1f0;}.cls-74{fill:#3badbd;}.cls-75{fill:#170d41;}.cls-76{fill:#249db2;}.cls-77{fill:#3ad8fe;}.cls-78{fill:#56fcfd;}.cls-79{fill:#f9fbfc;}.cls-80{fill:#1b5b88;}.cls-81{fill:#0d3941;}.cls-82{fill:#5924b1;}.cls-83{fill:#2e1051;}.cls-84{fill:#19317e;}.cls-85{fill:#2950ca;}.cls-86{fill:#2445b1;}.cls-87{fill:#3d1360;}.cls-88{fill:#345bdc;}.cls-89{fill:#2dc6e0;}.cls-90{fill:#19707e;}.cls-91{fill:#103741;}.cls-92{fill:#f646f8;}.cls-93{fill:#2584b1;}.cls-94{fill:#45e5fd;}.cls-95{fill:#411668;}.cls-96{fill:#37ccfe;}.cls-97{fill:#1b6587;}.cls-98{fill:#0f1c48;}</style></defs><title>dodecaedro</title><g id="Capa_2" data-name="Capa 2"><g id="Capa_1-2" data-name="Capa 1"><path class="cls-1" d="M235.066,32.184c13.6,6.963,27.238,13.848,40.726,21.017,1.291.686,2.244,3.119,2.319,4.787.325,7.311.194,14.641.418,21.958.043,1.43.925,2.834,1.42,4.25,1.14,3.339.211,6.779.508,10.16-.329,4.214,1.224,8.646-1.441,12.587a17.275,17.275,0,0,0-8.6.108c-9.695,2.214-19.081,5.574-28.814,7.615-2.366.5-4.853,1.658-6.956-.7-8.389-12.1-15.79-24.843-23.628-37.3-1.594-2.534-3.046-5.131-5.928-6.452.6-3.389,4.26-3.937,5.955-6.584,6.151-9.608,13.658-18.27,20.218-27.611A10.912,10.912,0,0,1,235.066,32.184Z"/><path class="cls-2" d="M377,223.036c3.452,2.291,4.793,5.412,4.825,9.635.1,13.128.626,26.253.8,39.381.02,1.576-1.118,3.166-1.718,4.75-9.789,6.09-20.77,9.615-31.149,14.434a4.723,4.723,0,0,1-5.531-1.03c-7.158-9.644-13.012-20.127-19.18-30.389-2.923-4.864-6.305-6.933-12.067-6.69-11.8.5-23.639-.09-35.458.313a4.007,4.007,0,0,1-3.757-3.429c.682-1.358,1.068-2.981,2.918-3.318a9.721,9.721,0,0,0,7.572,2.879c10.28-.158,20.57-.244,30.846.023,4.651.12,7.239-1.85,9.461-5.705,6.038-10.475,11.629-21.23,18.692-31.088,2.447-1.659,4.744-.6,7.071.379,7.2,3.02,14.233,6.436,21.51,9.28C373.492,223.109,375.116,224.29,377,223.036Z"/><path class="cls-3" d="M341.071,87.063c11.681,5.932,23.385,11.818,35,17.869a4.826,4.826,0,0,1,2.392,3.307c.354,14.588.5,29.182.692,43.773-1.169,1.172-2.256,2.449-3.91,2.988-9.307,3.034-18.458,6.551-27.958,8.984-1.461.374-2.932.658-4.338-.216-4.618-4.455-7.145-10.32-10.254-15.743-4.769-8.319-10.456-16.12-14.284-24.977,1.945-5.927,6.311-10.4,9.453-15.612C332.046,100.507,336.079,93.47,341.071,87.063Z"/><path class="cls-4" d="M119.449,81.544c-.595-8.022-1.2-16.042-1.779-24.066-.292-4.06-.527-8.124-.787-12.186,10.575-2.958,21.123-6.023,31.909-8.167,2.032.3,3.085,1.794,3.989,3.39,3.911,6.9,8.573,13.315,12.731,20.057a16.66,16.66,0,0,1,2.876,10.268c0,2.485-.779,4.9-.609,7.406-.566,3.454,1.234,6.891.1,10.351-4.362,5.819-7.535,12.5-12.772,17.7-4.946-.429-8.821-3.422-12.94-5.681-4.329-2.375-8.688-4.652-13.177-6.693-2.1-1.475-4.236-2.911-6.428-4.258-2.607-1.527-2.492-4.291-3.074-6.744A2.848,2.848,0,0,1,119.449,81.544Z"/><path class="cls-5" d="M113.258,346.109c.838-6.487,1.707-12.97,2.5-19.463.216-1.778.195-3.585.283-5.379-1.261-4.27.589-8.248,1.153-12.341,1.132-.97.138-2.841,1.541-3.709,3.173-1.475,5.968-3.583,8.932-5.41,5.214-2.766,10.3-5.762,15.338-8.828,3.586-1.72,6.318-5.279,10.82-5.035,6.124,5.447,12.742,10.493,12.678,19.982-.035,5.106,1.564,10.162.75,15.327a14.133,14.133,0,0,1-2.613,5.827c-4.845,6.494-8.866,13.524-13.368,20.239-1.27,1.9-2.359,4.052-4.943,4.565-9.852-.652-19.608-2.07-29.344-3.639A4.974,4.974,0,0,1,113.258,346.109Z"/><path class="cls-6" d="M341.071,87.063c-2.506,4.552-4.819,9.225-7.561,13.63-4.685,7.528-9.639,14.888-14.48,22.318a4.781,4.781,0,0,1-3.4,1.882c-12.849,1.5-25.562,4.1-38.514,4.774a3.1,3.1,0,0,1-.964-.234c-.918-.5-1.774-1.3-1.671-2.285.718-6.79.119-13.836,3.689-20.1q.451-6.5.9-12.993c9.5-6.758,18.789-13.863,29.88-17.972,1.6-.366,3.515-1.488,4.753-.976C322.9,78.907,331.967,83.036,341.071,87.063Z"/><path class="cls-7" d="M37.659,247.673c-7.65-5.206-15.18-10.6-23-15.538-3.893-2.458-6.277-5.338-7.213-9.957C5.2,211.058,2.511,200.026,0,188.958c2.823-2.232,6.336-1.83,9.535-2.163,5.093-.53,10.214-.94,15.325-1.3,4.582-.34,7.679,1.577,10.32,5.47,7.194,10.608,14.983,20.806,22.165,31.43.925,1.368,2.145,2.576,2.427,4.309-1.619,6.391-6.093,11.222-9.33,16.714-1.7,2.877-2.372,6.671-6.015,8.17A7.2,7.2,0,0,1,37.659,247.673Z"/><path class="cls-8" d="M167.031,78.2l.078-7.237c1.152-6.022-.912-12.1.546-18.2.749-3.136,1.711-5.6,4.429-7.341,10.082-6.446,19.686-13.608,29.851-19.937a27.581,27.581,0,0,1,6-2.31c1.305-.2,2.815-.92,3.88-.5,7.8,3.045,15.509,6.319,23.248,9.521Q226.995,43.4,218.918,54.605c-2.224,3.077-4.305,6.289-6.807,9.125a75.759,75.759,0,0,1-6.995,6.279c-.759,1.8-2.435,2.148-4.056,2.465-9.93,1.941-19.8,4.187-29.725,6.137C169.88,78.9,168.379,79.219,167.031,78.2Z"/><path class="cls-9" d="M113.258,346.109l33.783,4.823a5.227,5.227,0,0,1,3.209,2.16c7.054,11.126,15.871,21.023,22.554,32.407.4,2.8-1.607,4.106-3.418,5.568-3.719,3-7.859,5.465-11.322,8.8-2.914,2.22-5.482,1.894-8.5-.286-9.418-6.806-19.146-13.186-28.509-20.064a10.99,10.99,0,0,1-3.79-6.395C115.655,364.166,114.551,355.12,113.258,346.109Z"/><path class="cls-10" d="M26.119,186.784,0,188.957c3.482-10.538,6.874-21.109,10.545-31.583.533-1.521,2.246-2.793,3.677-3.808,6.62-4.693,13.334-9.255,20.014-13.863,2.771-3.89,6.726-6.079,11.077-7.706,1.175-.142,2.487-.14,3.275.694,4.665,4.937,10,9.382,12.355,16.1-.5,2.561-2.22,4.4-3.785,6.331-7.635,9.4-15.557,18.589-22.746,28.334C32.07,186.63,29.01,186.037,26.119,186.784Z"/><path class="cls-11" d="M66.107,338.9c-1.641-.273-3.614-.054-4.871-.9-8.931-6-17.811-12.1-26.475-18.479a12.444,12.444,0,0,1-4.181-6.2c-2.518-8.728-4.61-17.579-6.8-26.4a10.954,10.954,0,0,1,.027-2.776c9.069.063,18.083,1.019,27.113,1.653a6.354,6.354,0,0,1,3.434,2.682c7.533,9.844,14.647,20,22.141,29.87a7.536,7.536,0,0,1,1.411,3.14c-.118,4.72-4.362,6.813-6.622,10.159C69.631,334.091,67.409,336.167,66.107,338.9Z"/><path class="cls-12" d="M207.938,23.167c-9.926,6.59-19.462,13.9-29.9,19.538-8.06,4.351-9.784,10.657-9.978,18.571-.079,3.233-.619,6.456-.95,9.683-1.014-3.393-1.41-7.153-3.162-10.109-4.635-7.815-9.858-15.282-14.846-22.888.222-3.3,3.025-4.94,4.761-7.224,5.313-6.989,10.93-13.742,16.374-20.631,1.041-1.317,2.074-2.6,3.824-2.986,9.595,4.808,19.174,9.649,28.8,14.39A36.443,36.443,0,0,0,207.938,23.167Z"/><path class="cls-13" d="M52.03,287.048c-8.125-.427-16.255-.791-24.371-1.345-1.312-.09-2.567-1.025-3.849-1.567,2.81-10.367,5.419-20.8,8.6-31.053.663-2.139,3.44-3.622,5.246-5.408q3.219,1.633,6.432,3.271c10.479-2.233,21.057-1.792,31.637-1.184,2.72.873,3.392,2.771,1.8,4.956-7.777,10.7-15.275,21.615-23.7,31.833A1.664,1.664,0,0,1,52.03,287.048Z"/><path class="cls-14" d="M174.059,7.121,149.1,37.962c-9.192,2.452-18.37,4.956-27.588,7.3-1.451.369-3.081.032-4.629.024,1.406-6.656,2.688-13.344,4.308-19.95a8.042,8.042,0,0,1,2.934-4.244Q138.5,10.8,153.152.9a6.224,6.224,0,0,1,4.923-.642C163.494,2.305,168.746,4.8,174.059,7.121Z"/><path class="cls-15" d="M28.213,107.75c2.681-8.169,5.319-16.353,8.095-24.49a5.8,5.8,0,0,1,2.172-2.593C48,74.053,57.57,67.512,67.126,60.95c7.107-.091,11.322,4.135,14.593,9.775-.584,3.47-3.2,5.664-5.256,8.178C70.946,85.666,65.305,92.327,59.788,99.09a18.164,18.164,0,0,1-4.9,4.107c-7.664,2.186-15.562,3.283-23.317,5.047A4.134,4.134,0,0,1,28.213,107.75Z"/><path class="cls-16" d="M28.213,107.75l26.92-5.848c2.37-.46,3.166,1.524,4.136,2.9,6.659,9.472,13.157,19.057,19.63,28.657,1,1.483,2.715,3.2.553,5.167-3.215.858-6.241-.3-9.237-1.053-7.363-1.862-14.98-2.57-22.22-4.971a2.756,2.756,0,0,0-2.806.331L34.234,139.7Q31.225,123.726,28.213,107.75Z"/><path class="cls-17" d="M66.107,338.9c.965-2.127,1.657-4.441,2.954-6.341,2.533-3.71,5.4-7.19,8.135-10.764,8.027-4.262,16.73-6.864,25.145-10.166,3.53-1.385,7.04-2.862,10.69-3.928,1.713-.5,3.475-1.32,5.146.154q-1.071,6.705-2.141,13.413c-3.163,1.823-6.559,3.336-9.451,5.517C94.557,335.854,80.152,336.723,66.107,338.9Z"/><path class="cls-18" d="M343.009,162.927a40.406,40.406,0,0,0,6.627-1.017c9.873-3.2,19.687-6.581,29.523-9.9q-1.447,2.994-2.894,5.988c-3.943,5.587-10.066,8.5-15.394,12.342q-13.922,10.024-28.067,19.743c-1.844,1.275-2.718,3.285-4.46,4.54-4.443.734-8.585-1.169-12.912-1.449a5.12,5.12,0,0,1-2.11-.77c-1.352-1.955.6-2.635,1.512-3.546,7.286-7.268,14.909-14.177,22.745-20.844C339.476,166.4,340.857,164.255,343.009,162.927Z"/><path class="cls-19" d="M281.288,320.651c-1.636,7.3-6.846,11.264-13.2,14.165-1.454,2.682-4.327,3.453-6.657,4.958-3.1,1.458-6.013,3.272-9.082,4.787-2.372,1.344-4.672,2.816-7.12,4.024-2.525,1.1-4.707,2.805-7.132,4.084-2.876,1.422-6.241,1.606-8.921,3.533-4.64.5-9.016,2.11-13.5,3.27a7.318,7.318,0,0,1-1.424.246,4.652,4.652,0,0,1-1.441-.205,1.852,1.852,0,0,1-.972-1.011c.354-1.8,1.839-2.746,3.129-3.666,7.373-5.261,14.279-11.174,22.064-15.866,14.039-6.835,28.249-13.279,42.865-18.805A2.512,2.512,0,0,1,281.288,320.651Z"/><path class="cls-20" d="M304.042,331.946c-1.033.095-2.333.641-3.058.213-6.366-3.757-12.63-7.688-18.924-11.568-2.367-2.868-1.129-6.277-1.359-9.45-.2-2.765.064-5.556-.218-8.321a3.64,3.64,0,0,1,.119-1.593c1.845-2.163,3.631-.9,5.228.264,7.93,5.777,15.983,11.381,23.91,17.159,1.975,1.439,4.091,3.014,3.911,5.972C312.107,329.235,307.476,329.805,304.042,331.946Z"/><path class="cls-21" d="M315.028,191.885l14,2.083c1.189-.808,2.268-.084,3.38.23,3.937,2.02,8.238,3.438,11.389,6.782,6.678,3.692,13.576,7.043,19.959,11.188,4.76,3.091,8.855,7.207,13.247,10.868.5,1.964.557,3.142-2.125,1.963q-12.515-5.5-25.162-10.695a38.062,38.062,0,0,0-5.693-1.406c-9.146-5.464-17.749-11.745-26.583-17.679C316.3,194.457,314.608,193.868,315.028,191.885Z"/><path class="cls-22" d="M215.028,358.836l13.963-2.965c2.628.919,3.549,3.436,4.732,5.506,1.9,3.323,4.045,4.09,7.137,1.725,2.7-1.259,5.359-2.619,8-4.006,1.731-.77,3.349-1.83,5.287-2.079a2.822,2.822,0,0,1,2.025.674c.414,2.536-1.52,3.325-3.2,4.349-5.3,3.243-10.321,6.951-15.907,9.733-6.674,2.619-13.252,5.561-20.1,7.612-1.549.465-4.025-2.166-6.074-3.372C215.17,370.982,212.371,364.254,215.028,358.836Z"/><path class="cls-23" d="M215.028,358.836a69.529,69.529,0,0,0,.1,7.952c.493,4.048-.8,7.073-4.227,9.225-7.185,3.739-14.207,7.844-21.594,11.127-10.271,4.565-20.816,8.513-31.244,12.725q3.519-3.519,7.041-7.039,3.488-3.492,6.971-6.987c10.725-3.848,20.709-9.355,31.115-13.918a58.578,58.578,0,0,1,8.778-3.286c2.108-2.965-.592-6.943,2.069-9.77C214.369,358.85,214.7,358.84,215.028,358.836Z"/><path class="cls-24" d="M345.052,289.828c1.826-.069,3.868.373,5.443-.291,9.091-3.83,18.065-7.94,27.1-11.9a20,20,0,0,1,3.306-.833l-3.738,4.131c-11.739,9.39-25.472,15.582-38.03,23.661-2.651,1.706-5.381,3.312-8.021,5.053-2.468,1.328-5.2,1.8-7.884,2.4-1.716.14-3.423.93-5.158.107-1.531-2.689.839-3.613,2.335-4.62,5.246-3.531,10.349-7.276,15.717-10.624C339.374,294.885,342.6,292.854,345.052,289.828Z"/><path class="cls-25" d="M81.161,71c-3.8-4.575-7.737-8.965-14.035-10.054,1.643-.035,3.42-.5,4.907-.039,16.545,5.153,32.551,11.581,47.412,20.63a.833.833,0,0,0,.545.651c1.013,5.156.226,6.463-3.524,4.906C104.521,82.137,92.422,77.478,81.161,71Z"/><path class="cls-26" d="M304.042,331.946l8.98-7.107c3.744-3.866,8.594-6.22,12.833-9.414,6.08-1.717,11.619-4.67,17.19-7.555,2.792-.582,5.188-2.1,7.741-3.245,1.592-.716,3.135-2.035,5.076-.893-3.037,2.918-5.685,6.467-9.188,8.628a264.588,264.588,0,0,1-25.247,13.927C315.968,328.881,309.859,330.107,304.042,331.946Z"/><path class="cls-27" d="M308.955,76.079c-8.353,5.2-16.692,10.418-25.071,15.573-1.519.935-3.2,1.605-4.809,2.4q.438-4.927.875-9.855c5.374-3.52,10.652-7.2,16.192-10.442,1.366-.8,3.649-.445,5.395-.073A69.777,69.777,0,0,1,308.955,76.079Z"/><path class="cls-28" d="M331.88,195.032l-2.857-1.065c.58-1.311.791-3.139,1.795-3.855,12.819-9.149,25.757-18.133,38.653-27.175,2.291-1.607,4.53-3.29,6.794-4.937l-4.063,7.992c-8.424,6.932-17.91,12.346-26.725,18.715-4.261,3.078-8.882,5.686-12.673,9.393A2.49,2.49,0,0,1,331.88,195.032Z"/><path class="cls-29" d="M332.1,193.915c-.076-.407-.341-1.088-.2-1.184q19.383-13.332,38.843-26.553c.362-.246.968-.132,1.461-.186-2.289,2.831-4.082,6.394-6.965,8.347-6.83,4.625-14.178,8.487-21.316,12.657C340.921,190.908,337.181,193.556,332.1,193.915Z"/><path class="cls-30" d="M331.024,308.644c9.26-5.723,18.478-11.515,27.8-17.143,6.039-3.647,12.225-7.054,18.345-10.568-4.393,7.659-13.033,9.435-19.569,14.126-3.451,4.538-9.394,5.2-13.511,8.7a61.921,61.921,0,0,1-8.612,4.677C334.066,309.035,332.58,310.281,331.024,308.644Z"/><path class="cls-31" d="M261.052,338.844l7.036-4.028q-.02,8.5-.038,17.007c-.934.863-1.847,1.786-3.3,1.078-2.387-3.2-3.343-7.039-4.731-10.682C259.514,340.886,259.618,339.635,261.052,338.844Z"/><path class="cls-32" d="M343.935,302.721q6.831-3.832,13.662-7.664-.869,4.341-1.735,8.676l-12.849,5.145A30.5,30.5,0,0,1,343.935,302.721Z"/><path class="cls-33" d="M332.1,193.915,343.922,187q-.066,6.994-.129,13.985l-11.913-5.948Q331.991,194.474,332.1,193.915Z"/><path class="cls-34" d="M265.036,352.782l3.014-.959c-.9,1.685-1.363,4.144-2.765,4.929-9.292,5.207-18.785,10.056-28.212,15.021,5.031-3.5,10.09-6.957,15.074-10.522a44.393,44.393,0,0,0,3.885-3.507C257.963,354.147,260.759,352.121,265.036,352.782Z"/><path class="cls-35" d="M281.243,301.85q.408,9.37.816,18.741l-.382.078-.39-.016-.445.118C278.846,314.419,278.234,308.1,281.243,301.85Z"/><path class="cls-36" d="M167.031,78.2l38.085-8.187c1.662.986,3.957,1.567,4.889,3.022,8.479,13.224,16.72,26.6,25.031,39.933,1.6,2.653.249,4.607-1.372,6.679-5.63,7.195-11.462,14.224-17.391,21.169a12.285,12.285,0,0,0-3.336,7.458,3.32,3.32,0,0,1-2.863.286c-12.34-6.879-24.805-13.531-37.19-20.329-1.882-1.033-3.949-1.875-4.756-4.161-.567-4.807-.9-9.633-1.437-14.443-.152-4.653-.1-9.311-.915-13.925a9.237,9.237,0,0,1,1.279-6.714Z"/><path class="cls-37" d="M213.078,147.738c-3.741-2.456-.312-4.407.812-5.844,6.159-7.877,12.692-15.46,18.9-23.3,1.2-1.518,1.521-3.734,2.248-5.628,1.64.28,3.42,1.119,4.9.752q17.047-4.234,33.979-8.925c2.475-.685,4.238-1.179,4.254,2.253-.8,6.147-1.64,12.29-2.384,18.444a17.218,17.218,0,0,0,.22,3.273,3.873,3.873,0,0,1-.723,1.282,7.213,7.213,0,0,0-2.976,6.444c.07,1.789.218,3.658-.881,5.279-2.615.614-2.046-1.547-2.562-2.856-.5-1.27,1.21-3.4-1.468-3.8a21.594,21.594,0,0,0-3.494,1.894c-7.259,5.308-15.129,9.656-22.618,14.6a12.62,12.62,0,0,1-11.39,1.644,55.193,55.193,0,0,0-11.714-2.331C216.271,150.193,214.292,149.578,213.078,147.738Z"/><path class="cls-38" d="M315.028,191.885c8.317,5.664,16.665,11.285,24.924,17.031a33.048,33.048,0,0,1,4.066,3.982c-6.739,11.584-13.355,23.243-20.349,34.671a8.111,8.111,0,0,1-5.836,3.189c-11.937.286-23.891-.075-35.828.238-3.542.093-5.008-1.283-5.895-4.2-2.714-5.675-1.692-11.88-2.483-17.826-.431-3.245.418-6.584-.444-9.827-.775-3.608,1.028-5.968,3.877-7.735,4.59-2.846,9.3-5.489,13.986-8.164a12.128,12.128,0,0,0,3.587-2.039c1.721-1.454,3.985-1.969,5.755-3.342,3.6-2.416,7.174-4.87,11.286-6.378a2,2,0,0,1,1.344.212Z"/><path class="cls-39" d="M345.052,289.828c-1,1.533-1.669,3.535-3.058,4.52-6.608,4.687-13.439,9.056-20.123,13.637a35.375,35.375,0,0,0-3.893,3.593c-1.636,2.121-3.7,1.313-5.342.369q-15.478-8.871-30.6-18.353a4.819,4.819,0,0,1-2.019-2.754c-1.22-7.749.256-15.6-.925-23.344-.606-4.884-3.959-9.37-2.146-14.609a18.8,18.8,0,0,1,4.166-.973c12.127-.046,24.258-.127,36.377.193a8.346,8.346,0,0,1,5.94,3.124C330.845,266.63,337.89,278.267,345.052,289.828Z"/><path class="cls-40" d="M276.951,252.887l3.177,13.938c-1.484,3.039-3.684,1-5.259.434-9.205-3.288-18.424-6.539-27.588-9.941-3.576-1.328-7.222-2.42-10.808-3.7-8.771-9.223-18.684-17.26-27.571-26.373a3.408,3.408,0,0,1,2.674-1.609,48.272,48.272,0,0,1,11.063.186,17.184,17.184,0,0,0,6.809.691,17.956,17.956,0,0,1,12.13,3.083c4.561,2.79,9.043,5.724,13.82,8.157,4.794,3.2,10.229,5.337,14.862,8.81.381.213.748.457,1.109.7,1.01.749,2.31,1.211,2.69,2.612Z"/><path class="cls-41" d="M274.059,249.881l-2.924-1.817c-.457-8.685-2.183-17.389.287-26.032.459-1.606.06-3.842,2.611-4.177q1.038,14.472,2.076,28.942Z"/><path class="cls-42" d="M313.018,191.7a1.26,1.26,0,0,1-.955.209c-2.2-1.134-4.323-2.409-6.551-3.5-5.532-4.177-12.647-5.332-18.175-9.517-3.982-3.187-9.1-4.453-13.051-7.711a5.256,5.256,0,0,1-1.881-5.251c-.222-9.977,1.355-19.88,1.132-29.855-.056-2.482-.15-5.027,1.711-7.07a1.668,1.668,0,0,0,.76-.245l43.022-5.75,23.979,39.916c-.5,1-.779,2.241-1.549,2.947C332.022,174.528,322.51,183.1,313.018,191.7Z"/><path class="cls-43" d="M81.161,71c7.736,3.188,15.487,6.339,23.2,9.582,3.646,1.533,7.228,3.22,10.82,4.879,3.466,1.6,5.716,1.5,4.81-3.274l3.111,6.742c-.928,9.522-.288,19.071-.476,28.606-.059,2.955.135,5.941-1.13,8.736-1.912,3.221-4.269,5.878-8.262,6.433-2.539-.69-4.884.322-7.263.9q-12.265,2.984-24.585,5.747c-.859-.123-1.51-.428-1.27-1.489Q67.625,119.884,55.133,101.9C61.387,94.72,67.689,87.58,73.872,80.338,76.432,77.338,78.739,74.122,81.161,71Z"/><path class="cls-44" d="M128.864,92.634q11.146,5.654,22.294,11.3c1.3.658,2.638,1.244,3.958,1.863.942-.077,1.267.421,1.2,1.285a7.7,7.7,0,0,1-3.64,3.2,18.409,18.409,0,0,0-7.617,8.072c-2.006,1.041-3.878-.1-5.807-.334-1.742-.306-3.248.455-4.812,1.009-1.623.576-3.267,1.017-4.244-1.084-1.213-6.668-1.59-13.433-2.436-20.142C127.536,96.028,127.543,94.153,128.864,92.634Z"/><path class="cls-45" d="M128.864,92.634l2.415,26.119c-1.693,5.38-6.028,7.186-11,8.132.264-11.052.452-22.107.879-33.153.063-1.623,1.266-3.2,1.942-4.8Z"/><path class="cls-46" d="M156.005,106.788l-.888-.99,11.938-16.814.984,21C163.431,111.164,159.584,109.48,156.005,106.788Z"/><path class="cls-47" d="M118.177,307.852c-10.371,3.67-20.728,7.379-31.12,10.987-3.239,1.124-6.572,1.977-9.862,2.953Q64.613,304.419,52.03,287.048c7.92-10.533,15.877-21.039,23.708-31.638.852-1.153.978-2.841,1.441-4.281.707-1.125,1.8-1.136,2.94-1.04,11.6,3.366,22.96,7.5,34.5,11.065,2.183.673,4.528,1.3,5.508,3.813,1.195,12.418.441,24.852.419,37.278a5.237,5.237,0,0,1-1.514,3.592Q118.607,306.845,118.177,307.852Z"/><path class="cls-48" d="M213.06,369.846c-7.907,3.287-15.838,6.518-23.711,9.884-4.418,1.89-8.7,4.109-13.135,5.945-1.2.5-2.748.133-4.137.164q-12.517-17.454-25.036-34.907,9.537-14.528,19.072-29.055a1.169,1.169,0,0,1,1.322-.189c1.88,1.356,1.881,3.42,1.847,5.386a7.411,7.411,0,0,0,3.861,7c13.229,7.838,25.3,17.494,38.914,24.734l1.059.114A26.948,26.948,0,0,1,213.06,369.846Z"/><path class="cls-49" d="M119.036,305.837l.011-41.9c-.336-4.786,2.664-8.317,5.494-11.241,2.508-2.592,2.55,1.43,3.557,2.708,1.3,5.009,1.471,10.19,2.341,15.266.168,2.179-.084,4.4.7,6.517a30.365,30.365,0,0,1,.262,6.849c-1.318,5.578-.457,11.593-3.36,16.854Z"/><path class="cls-50" d="M152.982,286.809l-9.66,5.024c-2.661-4.517-3.724-9.176-1.274-14.156,7.12-2.487,14.426-1.525,21.62-.76,3.472.369,3.984,3.522,3.466,6.623a4.121,4.121,0,0,1-.853,1.58C162.051,287.229,157.458,286.554,152.982,286.809Z"/><path class="cls-51" d="M141.9,277.811q.708,7.011,1.417,14.023l-15.284,9.054,2.136-16.917a8.351,8.351,0,0,1,1.13-1.772c3.372-1.51,6-4.576,10.006-4.774C141.507,277.552,141.706,277.681,141.9,277.811Z"/><path class="cls-52" d="M152.982,286.809,166,284.783a2.4,2.4,0,0,1,1.119,2.1c-.641,4.981,2.164,5.885,6.256,5.578a20.4,20.4,0,0,1,5.926.216c1.264.28,3.219.134,2.651,2.493-3.369,2-7.085,1.027-10.645,1.133-2.978.09-4.063,1.215-3.892,4.216.235,4.115.669,8.2.989,12.306.237,3.034.946,6.281-1.254,9.037l-1.033.011q-.522-9.849-1.056-19.7a3.486,3.486,0,0,0-.374-1.909C160.826,295.746,156.894,291.286,152.982,286.809Z"/><path class="cls-53" d="M26.119,186.784c7.178-.657,9.281-7.242,13.063-11.616,7.314-8.459,14.028-17.435,20.991-26.2,1.654-1.481,3.449-.828,5.109-.164,7.644,3.053,15.406,5.8,23.014,8.948,2.759,1.141,4.265,2.972,4.113,6.021-.664,5.986-2.829,11.684-3.389,17.692,1.236,10.481,3.163,20.86,4.467,31.33.044,3.127-1.024,5.6-4.239,6.56-8.926,2.675-17.791,5.557-26.8,7.956a3.287,3.287,0,0,1-3.3-.426C50.639,214.927,42.039,203.03,33.7,190.956,31.723,188.1,29.635,186.388,26.119,186.784Z"/><path class="cls-54" d="M59.145,226.889c9.639-2.831,19.247-5.778,28.937-8.425,3.144-.86,4.456-2.458,4.091-5.59,2.478.195,2.138,2.262,2.165,3.709.117,6.147,2.459,10.694,8.356,13.208a6.579,6.579,0,0,1,3.849,3.637c.045,2.589-2.318,3-3.8,4.213-6.236,3.479-12.147,7.5-18.281,11.153-1.416.843-2.7,1.972-4.493,1.957q-1.4.188-2.8.377c-9.433.142-18.867.314-28.3.393a36.389,36.389,0,0,1-4.789-.575Q51.616,238.918,59.145,226.889Z"/><path class="cls-55" d="M91.146,163.916c-.555-1.423-.755-3.751-1.719-4.128-9.68-3.79-19.485-7.258-29.254-10.817-3.9-5.054-7.745-10.16-11.783-15.106-.579-.708-2.11-.638-3.2-.929,2.186-.194,4.454-.865,6.542-.5,9.489,1.651,18.928,3.594,28.384,5.432l1.207.856c5.651.974,10.21,3.94,14.274,7.825.06,5.179-1.766,10.064-2.366,15.144C93.1,162.78,92.768,164.05,91.146,163.916Z"/><path class="cls-56" d="M236.076,252.9c8.319,2.66,16.632,5.338,24.959,7.973,6.355,2.012,12.727,3.97,19.092,5.951q.436,9.371.868,18.739c.1,2.154.134,4.312.2,6.468,1.556,2.943,1.919,5.889.016,8.839l.033.98q-.2,9.462-.4,18.921-19.353,8.517-38.71,17.027c-1.661.728-3.365,1.357-5.049,2.033-2.418-.524-3.3-2.658-4.465-4.41-6.9-10.366-14.014-20.6-20.668-31.122-2.759-4.365-5.961-6.783-11.342-6.291-1.931.177-4.871,1.207-5.658-2.238,2.517-1.916,5.466-1.194,8.207-1.111,3.775.113,6.15-1.336,8.073-4.6,6.588-11.191,14.127-21.789,20.831-32.915C233.064,255.476,233.931,253.545,236.076,252.9Z"/><path class="cls-57" d="M195,295.94a67.259,67.259,0,0,0,8.756.884c3.4-.076,5.523,1.26,7.355,4.045,8.576,13.042,17.3,25.984,25.975,38.962L212.057,358.8c-1.629-.415-3.5-.45-4.849-1.3-11.178-7.075-22.208-14.384-33.4-21.437-3.766-2.374-6.545-4.907-5.835-9.877.2-1.372-.526-2.876-.827-4.319-.467-7.76-.656-15.553-1.529-23.267-.384-3.391.521-4.062,3.538-3.9,4.3.235,8.613.187,12.92.259C186.452,294.368,190.863,293.321,195,295.94Z"/><path class="cls-58" d="M265.036,352.782l-9,4.963q-.985.022-1.971.048c-.637-3.317-1.016-6.684-2.394-9.837a3.584,3.584,0,0,1,.391-4.113l8.994-5Z"/><path class="cls-59" d="M241.064,363.839c-3.233,3.23-5.755,2.969-7.856-1.315a68.456,68.456,0,0,0-4.216-6.653l9.061-4.044C242.32,353.8,243.835,359.849,241.064,363.839Z"/><path class="cls-60" d="M252.058,343.843a55.1,55.1,0,0,1,1.923,7,49,49,0,0,1,.08,6.955L249.1,359.9c-3.746-3.22-4.181-7.548-4.041-12.069Z"/><path class="cls-61" d="M245.056,347.832,249.1,359.9q-4.016,1.971-8.033,3.939-1.506-6.006-3.011-12.012Z"/><path class="cls-62" d="M213.06,369.846q.029-5.465.055-10.929a2.154,2.154,0,0,1,.924-.052c-.056,3.623-.109,7.245-.182,10.868,0,.093-.207.245-.328.256A1.3,1.3,0,0,1,213.06,369.846Z"/><path class="cls-35" d="M281.21,300.87q-.007-4.421-.016-8.839c9.978,5.92,19.9,11.929,29.977,17.683,1.979,1.13,4.525,1.268,6.808,1.864l5.011-.654c1.83,1.183,3.635,2.38,3,5.032l-12.973,8.883c-3.383-3.212-6.548-6.7-10.2-9.574-6.091-4.8-12.47-9.229-18.793-13.724C283.3,301.021,282.161,301.079,281.21,300.87Z"/><path class="cls-63" d="M326,315.956l-3-5.032q4.017-1.138,8.034-2.279l12.911-5.923c1.516,2.324,1.417,4.408-.922,6.156Z"/><path class="cls-64" d="M139.144,116.793l5.928,1.08c1.213-.918,2.51-.565,3.8-.233,5.763,1.485,11.356,3.56,17.152,4.934a5.088,5.088,0,0,1,3.123,2.272q18.55,10.072,37.089,20.168a42.622,42.622,0,0,1,4.024,2.82,3.344,3.344,0,0,1,.49,2.91c-.787,1.566-1.359,3.269-2.763,4.455-5.333-.7-9.933-3.449-14.826-5.362-11.407-4.459-22.369-9.981-33.844-14.285-5.65-5.284-12.207-9.5-17.733-14.925C140.512,119.578,138.546,118.954,139.144,116.793Z"/><path class="cls-65" d="M169.143,124.846l-24.071-6.972c.436-6.859,7.174-7.5,10.933-11.086l12.034,3.2Z"/><path class="cls-66" d="M209.9,150.943q.175-1.553.352-3.108l2.822-.095q2.53,1.2,5.061,2.413a2.239,2.239,0,0,1,0,3.024c-4.97.835-5.988,4.047-5.829,8.617.094,2.729,1.663,6.276-2.147,8.139C207.321,163.637,208.566,157.291,209.9,150.943Z"/><path class="cls-67" d="M217.988,153.024q.076-1.435.151-2.872c4.07.628,8.312.74,12.164,2.022,4.175,1.39,7.284.213,10.644-1.912,7.641-4.834,15.4-9.483,23.11-14.208,1.834,1.875,1.281,4.284,1.353,6.5a17.538,17.538,0,0,0,1.621,7.081c.954,2.213,3.622,2.726,4.753,4.769.993,4.178.712,8.475,1.2,12.7q.925,1.823,1.852,3.643c-.681,2.817-3.372,3.388-5.347,4.733-1.629,1.11-3.476,1.926-4.576,3.684-1.706,3.144.111,7.6-3.717,9.945-2.271-3.811-5.678-6.258-9.547-8.276-9.372-4.891-18.3-10.793-29.184-12.073-1.739-.2-3.642-.579-4.894-2.16C216,162.024,214.334,157.44,217.988,153.024Z"/><path class="cls-68" d="M272.982,167.109q-1.181-6.535-2.363-13.071c-1.489-4.06-1.916-8.1.277-12.072a40.057,40.057,0,0,0,.145-5.817c-.4-3.541.782-5.949,4.2-7.143-.4,11.159-.758,22.32-1.232,33.476A26.011,26.011,0,0,1,272.982,167.109Z"/><path class="cls-69" d="M270.9,141.966q-.138,6.036-.277,12.072l-4.344-3.191c-.195-5.568-2.162-11.221.8-16.637,1.7-1.525,3.256-2.882,3.268,1.068C270.351,137.508,270.7,139.737,270.9,141.966Z"/><path class="cls-70" d="M267.076,134.21q-.4,8.319-.8,16.637l-2.217-14.793Q265.566,135.132,267.076,134.21Z"/><path class="cls-71" d="M287.971,177.946c4.644,2.3,9.321,4.541,13.913,6.943a36.8,36.8,0,0,1,4.29,3.058c.226,4.563-3.908,6.976-5.3,10.742l-5.963,3.228c-3.911,1.923-8.1,1.243-12.212,1.333-3.311-.125-5.133-1.595-3.874-5.038,2.1-5.73,4.168-11.455,5.76-17.353C285.009,179.3,285.792,177.688,287.971,177.946Z"/><path class="cls-72" d="M274.033,217.855c-.721,6.99-1.463,13.977-2.152,20.969-.3,3.074-.5,6.159-.747,9.24l-.14-.249.241-.152c-1.543-5.833-2.185-12.091-8.137-15.715-.817-.5-1.046-2.113-.753-3.273.667-2.644-1.782.733-1.592-.861a3.49,3.49,0,0,1-.234-3.675,4.589,4.589,0,0,1,1.044-1.148c2.49-3.429,1.887-7.425,2.118-11.277.172-2.866-.689-5.935,1.518-8.451,5.458-3.265,11.168-1.422,16.817-.846,2.717,0,5.433-.021,8.149.013.959.012,2,0,1.859,1.455-4.958,2.985-10.034,5.8-14.805,9.059C275.733,213.96,275.072,216.184,274.033,217.855Z"/><path class="cls-73" d="M300.876,198.689q2.648-5.371,5.3-10.742l5.889,3.96Z"/><path class="cls-74" d="M292.024,203.885l-10.066-1.1q-.356-.4-.13-.628a.526.526,0,0,1,.372-.184l12.714-.054Z"/><path class="cls-75" d="M195,295.94l-12.922-.979c-3.5-.368-7-.948-10.508-1.059-6.205-.195-6.191-.073-5.523-6.157a22.743,22.743,0,0,0-.048-2.962l-.079,0c1.4-2.347.681-4.712.121-7.107-.8-3.424-.4-6.908-.367-10.368-.028-5.113-.309-10.262,1.947-15.078,1.156-2.133,3.17-3.3,5.149-4.5,10.169-6.171,20.432-12.188,30.689-18.212,1.674-.984,3.3-2.314,5.488-1.686,1.228.385,2.783.419,3.633,1.209,7.513,6.992,14.92,14.1,22.292,21.238a8.254,8.254,0,0,1,1.207,2.621c-8.5,13.584-16.946,27.207-25.609,40.688-.791,1.231-2.949,2.049-4.553,2.2C202.3,296.125,198.639,295.923,195,295.94Z"/><path class="cls-76" d="M208.944,227.832l-39.93,23.944c-4.645,2.931-9.8,1.193-14.722,1.633-6.509-.722-13.139.881-19.588-.959-1.006-.834-.868-1.612.114-2.38,8.054-6.3,13.386-15.014,20.016-22.576,1.416-1.615,2.593-3.444,4.572-4.48,14.474-5.281,29.33-9.394,43.894-14.4,1.566-.538,3.19-.992,4.807-.084,1.468,1.6.767,3.6,1.276,5.158,1.048-1.018-2.389-4.852,2.215-4.415a30.457,30.457,0,0,1-.491,17.452Z"/><path class="cls-77" d="M262.032,223.832c-.322.039-.644.078-.966.114a50.664,50.664,0,0,1-19.128,7.135c-5.63-4.644-12.715-2.432-18.991-4.031,2.533-1.286,5.583-2.249,3.852-6.192,5.166-5.25,7.371-12.5,12.361-17.95a77.324,77.324,0,0,1,16.889-14.431c2.336.415,4.757.566,6.691,2.217C263.805,201.771,264.629,212.838,262.032,223.832Z"/><path class="cls-72" d="M227.111,220.882c2.978,5.718,2.978,5.718-4.165,6.167q-5.917-.16-11.838-.324-.069-8.927-.135-17.852c-1.453-.845-1.9-1.924-.789-3.37,2.02-1.2,4.147-.987,6.3-.478A32.216,32.216,0,0,1,227.111,220.882Z"/><path class="cls-78" d="M241.938,231.081l19.127-7.135q.066,2.1.131,4.195c1.889,5.432.42,7.768-6.507,10.349Z"/><path class="cls-79" d="M254.689,238.49c2.511-3.235,8.336-4.388,6.506-10.35.626-.017,1.793-.1,1.8-.045.424,3.681,2.553,5.789,5.826,7.337,1.134.536,2.083,2.428,2.264,3.812a68.421,68.421,0,0,1,.149,8.419Z"/><path class="cls-80" d="M282.2,201.971c-.074.273-.154.543-.242.812l-16.777.745c-2.76-5.858-2.177-12.112-1.963-18.268.079-2.278.294-4.581.4-6.875l11.214-7.632,13.138,7.192a15.448,15.448,0,0,0-2.064,3.141c-2.023,5.7-3.858,11.477-5.855,17.192C279.282,200.486,278.981,202.19,282.2,201.971Z"/><path class="cls-81" d="M139.144,116.793c5.961,5.036,11.95,10.041,17.856,15.142a14.837,14.837,0,0,1,2.113,3.022c.59,2.3-1.1,3.688-2.2,5.263-7.083,10.221-15.036,19.81-22,30.113-3.232,4.783-7.106,8.251-13.093,8.764-9.432,1.814-19.045,1.916-28.538,3.13-1.779.227-3.662.216-5.1-1.258q1.477-8.528,2.956-17.053,1.936-9.1,3.872-18.2a2.148,2.148,0,0,1,.591-3.074c5.525-4.041,10.388-9.167,17.38-10.865l7.289-4.893,11-8.134Q135.211,117.774,139.144,116.793Z"/><path class="cls-82" d="M112.989,131.779c-4.893,3.322-9.846,6.559-14.64,10.018-1.35.974-2.232,2.6-3.33,3.923l-13.7-7c9.986-2.585,19.967-5.185,29.969-7.7C111.762,130.9,112.418,131.51,112.989,131.779Z"/><path class="cls-83" d="M79.973,250.751l22.112-13.943c2.213-1.072,4.213-.34,6.134.779,5.752,3.349,11.3,7.028,16.8,10.769,2.258,1.536,4.3,3.439,2.039,6.53l-1.558-2.4-6.447,11.453c-11.723-3.753-23.451-7.487-35.157-11.287A30.82,30.82,0,0,1,79.973,250.751Z"/><path class="cls-84" d="M127.053,254.886c-.537-1.611-.577-3.949-1.694-4.712-6.356-4.349-12.942-8.367-19.524-12.376-1.058-.645-2.491-.675-3.75-.99l4.036-2.927c1.983-.823,3.548.376,5.055,1.241,7.288,4.181,14.228,8.925,21.349,13.378a3.705,3.705,0,0,1,1.74,2.314c3.477.346,6.948.794,10.433,1.007,3.106.19,6.228.12,9.342.164.056,1.585-1.2,1.735-2.271,2.083a51.639,51.639,0,0,1-7.523.214c-6.758.1-6.714.1-6.757,6.955-.015,2.466.49,4.939-.053,7.406a9.37,9.37,0,0,1-8.29,2.244Q128.1,262.886,127.053,254.886Z"/><path class="cls-85" d="M131.218,283.154l-1.045.817q-.059-3.518-.118-7.034c1.652-4.393,4.423-6.261,8.548-5.766a2.447,2.447,0,0,1,1.017,2.6C137.807,277.778,133.186,279.278,131.218,283.154Z"/><path class="cls-86" d="M138.187,271.836l-8.132,5.1-.909-6.049L137,268.968C138.456,269.487,139.066,270.354,138.187,271.836Z"/><path class="cls-87" d="M144.13,252.941l7.96-.063c4.517,5.192,8.7,10.739,15.02,14,.014,4.469.131,8.942-.015,13.406a20.506,20.506,0,0,1-1.178,4.5c.383-6.568.384-6.607-6.053-6.743-5.985-.127-11.971-.159-17.959-.233l.073-.131a2.441,2.441,0,0,1-1.366-2.749C141.74,267.6,141.027,259.962,144.13,252.941Z"/><path class="cls-88" d="M141.186,275.864q.4.909.793,1.816-5.382,2.736-10.761,5.474c.046-5.364,5.406-6.164,8.013-9.329C140.795,273.63,140.948,274.788,141.186,275.864Z"/><path class="cls-89" d="M134.265,250.814l-28.144-16.933c-1.583-1.14-3.015-2.66-4.774-3.355-6.731-2.659-8.4-7.978-8.255-14.49a11.019,11.019,0,0,0-.92-3.162c-1.424-9.679-2.867-19.356-4.243-29.043a12.322,12.322,0,0,1,.261-2.862l34.911-3.095c3.911-1.417,6.59-.012,8.779,3.389,8.016,12.457,16.6,24.536,24.833,36.847,1.188,1.776,2.6,3.519,2.3,5.9-6.11,7.594-12.1,15.291-18.415,22.708C139.036,248.551,136.405,249.473,134.265,250.814Z"/><path class="cls-90" d="M159.013,224.01c-9.609-14.309-19.335-28.543-28.731-42.991-1.952-3-4.384-3.036-7.181-3.145,7-.922,9.582-6.85,13.119-11.643,7.672-10.395,15.267-20.846,22.893-31.274,5.386,1.961,10.854,3.723,16.139,5.925,10.982,4.574,21.866,9.381,32.791,14.092,1.109,1.023.963,2.393,1.017,3.7.587,14.378.563,28.763.483,43.147-.014,2.449-.01,4.962-1.521,7.118-7.7,2.338-15.4,4.654-23.093,7.02C176.283,218.622,167.651,221.326,159.013,224.01Z"/><path class="cls-91" d="M208.022,208.942l.021-53.968,1.861-4.03q.559,9.5,1.118,19a3.676,3.676,0,0,1,1.1,1.564c1.051,9.937.384,19.9.393,29.853a6.072,6.072,0,0,1-2.29,4.779q.375,1.368.748,2.737c-.422,2.018-.844,4.036-1.553,7.431C208.8,213.046,208.412,210.994,208.022,208.942Z"/><path class="cls-92" d="M211.142,170.76a2.047,2.047,0,0,1-.12-.821c.028-3.8.069-7.607.08-11.411.015-5.585,1.016-6.394,6.886-5.5q.015,6.764.028,13.524a1.835,1.835,0,0,1-.491,1.217C215.491,168.96,214.044,171.413,211.142,170.76Z"/><path class="cls-93" d="M261.188,189.963l-5.271-.975c-7.778-1.451-14.551-5.555-21.851-8.271-4.205-3.535-8.644-6.771-13.022-10.087-1.261-.956-3.079-1.519-3.044-3.6l.016-.481c15.06,1.355,27.368,9.44,39.988,16.629,1.623.925,2.184,3.713,3.237,5.638A.843.843,0,0,1,261.188,189.963Z"/><path class="cls-94" d="M261.188,189.963c.017-.384.035-.767.052-1.149q1.194-5.22,2.383-10.436.776,12.582,1.558,25.151c-.373,6.319-.7,12.642-1.2,18.952-.039.5-1.269.9-1.946,1.351.007-9.725.053-19.449-.016-29.173A27.8,27.8,0,0,0,261.188,189.963Z"/><path class="cls-95" d="M167.11,266.878c-7.9-1.563-11.742-7.478-15.02-14l1.951-.893,14.973-.209Q168.061,259.327,167.11,266.878Z"/><path class="cls-96" d="M234.17,180.017l21.748,8.97c-3.021,2.542-6.476,4.719-8.97,7.7-5.291,6.321-10.026,13.1-15.113,19.6a47.134,47.134,0,0,1-4.725,4.6l-10.043-15.048a2.4,2.4,0,0,1,.312-2.338c4.723-7.532,9.746-14.866,14.777-22.193A2.787,2.787,0,0,1,234.17,180.017Z"/><path class="cls-97" d="M234.17,180.017l-17.1,25.817-6.842.3c.293-6.7.664-13.392.851-20.092.143-5.091.053-10.188.066-15.283q3.43-1.866,6.859-3.731Z"/><path class="cls-98" d="M141.186,275.864l-1.956-2.039-1.044-1.989q-.59-1.435-1.182-2.869c-.278-4.58-.679-9.16-.715-13.742-.006-.781,1.454-2.063,2.409-2.254a26.188,26.188,0,0,1,5.431-.031Z"/></g></g></svg>