<svg xmlns="http://www.w3.org/2000/svg" viewBox="0 0 116.989 101.316"><defs><style>.cls-1{fill:#15151f;}.cls-2{fill:#f8e6d0;}</style></defs><title>Insta_1</title><g id="Capa_2" data-name="Capa 2"><g id="Capa_1-2" data-name="Capa 1"><polygon class="cls-1" points="30.401 99.316 2.31 50.658 30.401 2 86.588 2 114.68 50.658 86.588 99.316 30.401 99.316"/><path class="cls-2" d="M85.433,4,112.37,50.658,85.433,97.316H31.557L4.619,50.658,31.557,4H85.433m2.309-4H29.247L0,50.658l29.247,50.658h58.5l29.247-50.658L87.742,0Z"/><path class="cls-2" d="M58.57,39.478A11.591,11.591,0,1,1,46.98,51.069,11.6,11.6,0,0,1,58.57,39.478m0-4A15.591,15.591,0,1,0,74.161,51.069,15.59,15.59,0,0,0,58.57,35.478Z"/><circle class="cls-2" cx="74.381" cy="32.221" r="2.851"/><path class="cls-2" d="M62.54,18.187v4.1h0c13.3,0,16.51.328,20.315,3.8,4.162,3.8,5.24,5.563,5,24.2l-.007.59c-.233,17.947-.353,20.03-3.17,23.375-2.5,2.965-5.851,5.419-21.678,5.419-1.355,0-2.808-.019-4.319-.056-20.1-.49-22.711-1.556-25.547-4.725-3.054-3.414-4.071-7.335-4.071-23.819,0-1.223,0-2.38-.005-3.477-.031-14.064.085-16.514,4.347-20.606,4.706-4.517,9.1-4.7,25.176-4.7h3.959v-4.1m0,0H58.58c-15.592,0-21.926,0-28.016,5.847s-5.6,10.232-5.6,27.042S25.935,73,30.077,77.631s8.526,5.6,28.5,6.091c1.561.038,3.03.057,4.419.057,16.385,0,21.222-2.611,24.815-6.879,3.9-4.628,3.9-7.8,4.142-26.554s-.731-22.169-6.334-27.285c-5.117-4.672-10.026-4.874-23.083-4.874Z"/></g></g></svg>