<svg xmlns="http://www.w3.org/2000/svg" viewBox="0 0 116.989 101.316"><defs><style>.cls-1{fill:#f8e6d0;}.cls-2{fill:#15151f;}</style></defs><title>on</title><g id="Capa_2" data-name="Capa 2"><g id="Capa_1-2" data-name="Capa 1"><polygon class="cls-1" points="87.742 0 29.247 0 0 50.658 29.247 101.316 87.742 101.316 116.989 50.658 87.742 0"/><path class="cls-2" d="M58.57,21c14.7,0,19.6-.223,24.722,4.454s6.014,7.795,5.791,24.945S88.86,70.445,85.3,74.677s-8.464,6.682-26.727,6.236S36.3,79.577,32.512,75.345s-4.677-8.909-4.677-24.276-.445-19.377,5.123-24.722S44.316,21,58.57,21Z"/><circle class="cls-1" cx="74.381" cy="32.221" r="2.851"/><path class="cls-1" d="M58.634,39.668a11.59,11.59,0,1,1-11.59,11.59,11.6,11.6,0,0,1,11.59-11.59m0-4a15.59,15.59,0,1,0,15.591,15.59,15.59,15.59,0,0,0-15.591-15.59Z"/></g></g></svg>