<svg xmlns="http://www.w3.org/2000/svg" viewBox="0 0 176.941 199.008"><defs><style>.cls-1{fill:#15151f;}</style></defs><title>logo</title><g id="Capa_2" data-name="Capa 2"><g id="Capa_5" data-name="Capa 5"><path class="cls-1" d="M173.805,147.567S126,27,120,17,101.614,0,89,0H87.941c-12.614,0-25,7-31,17s-53.8,130.567-53.8,130.567c-11.684,26.014,11.031,55.6,39.2,50.957,7.142-1.175,12.6-3.524,19.985-9.818C70.708,180.412,78.367,178,87.941,178H89c9.574,0,17.234,2.412,25.617,10.706C122,195,127.461,197.349,134.6,198.524,162.774,203.162,185.489,173.581,173.805,147.567ZM120.56,165.5H56.322A14.561,14.561,0,0,1,42.89,145.316L75.009,68.587a14.561,14.561,0,0,1,26.864,0l32.119,76.729A14.561,14.561,0,0,1,120.56,165.5Z"/><polygon class="cls-1" points="88.441 98.611 73.441 134.444 103.441 134.444 88.441 98.611"/></g></g></svg>